<svg xmlns="http://www.w3.org/2000/svg" width="181.876" height="183.005" viewBox="0 0 181.876 183.005">
  <g id="Group_626" data-name="Group 626" transform="translate(-4337.761 -7062.538)">
    <path id="Path_518" data-name="Path 518" d="M4514.925,7186.285c2.723,2.924,5.368,5.76,8.007,8.6a13.713,13.713,0,0,1,1.469,1.668,2.563,2.563,0,0,1-.316,3.533,2.447,2.447,0,0,1-3.519.179,25.8,25.8,0,0,1-2.457-2.517q-4.119-4.4-8.223-8.814c-1.905-2.056-1.921-3.244-.057-5.257q4.915-5.306,9.863-10.582c1.558-1.659,3.049-1.872,4.345-.691,1.26,1.149,1.18,2.778-.3,4.389C4520.86,7179.931,4517.947,7183.035,4514.925,7186.285Zm32.813,9.807a2.708,2.708,0,0,0-.108,3.974c1.179,1.17,2.765,1.135,4.083-.256q5.36-5.651,10.618-11.4c1.336-1.462,1.317-2.79-.011-4.286-1.765-1.987-3.61-3.9-5.424-5.845-1.771-1.9-3.5-3.837-5.33-5.678a2.629,2.629,0,0,0-3.954-.095,2.745,2.745,0,0,0,.014,3.842c.43.525.909,1.011,1.372,1.509,2.563,2.755,5.129,5.51,7.837,8.418C4553.693,7189.661,4550.688,7192.852,4547.738,7196.092Zm-5.995-24.2a3.746,3.746,0,0,0-2.925,1.232,17.667,17.667,0,0,0-1.965,3.965c-2.977,6.453-5.966,12.9-8.914,19.366-.981,2.15-.194,4.081,1.756,4.382,1.692.262,2.61-.758,3.259-2.17q5.186-11.285,10.387-22.565c.253-.55.387-1.156.731-2.213C4543.358,7173.228,4542.635,7172.032,4541.744,7171.889Zm-5.763,124.921q10.949,0,21.9,0c2.33,0,3.459.863,3.51,2.619.052,1.814-1.189,2.846-3.527,2.848q-21.991.013-43.981,0c-2.605,0-4.043-1.535-3.4-3.593.494-1.57,1.741-1.892,3.228-1.887C4521.134,7296.822,4528.558,7296.81,4535.98,7296.81Z" transform="translate(-107.168 -68.513)" fill="#ffd112"/>
    <path id="Path_519" data-name="Path 519" d="M4428.837,7062.546q38.911,0,77.822,0c8.264,0,12.972,4.707,12.974,13.026q.007,56.934,0,113.867c0,8.25-4.766,12.981-13.04,12.993-.929,0-1.858.026-2.786-.012-2.136-.086-3.226-1.06-3.186-2.8.039-1.66,1.1-2.572,3.144-2.647,1.607-.058,3.223.007,4.823-.125a5.862,5.862,0,0,0,5.512-5.711c.043-.679.043-1.361.043-2.042q0-56.656-.015-113.311a12.409,12.409,0,0,0-.42-3.837c-.865-2.609-3.146-3.9-6.49-3.907q-22.846-.017-45.69-.006-55.348,0-110.7-.013c-2.16,0-4.337.024-5.749,1.892a13.861,13.861,0,0,0-1.727,3.767,6.3,6.3,0,0,0-.087,2.029q0,56.748,0,113.5c0,.742.007,1.487.07,2.227a5.844,5.844,0,0,0,5.232,5.389c1.783.16,3.586.091,5.379.155,1.99.072,3.134,1.041,3.177,2.642s-1.089,2.771-3.029,2.779a35.321,35.321,0,0,1-7.209-.345c-5.65-1.163-9.059-5.748-9.1-11.937-.056-8.421-.02-16.842-.02-25.262q0-44.117.013-88.234a22.612,22.612,0,0,1,.344-4.983c1.285-5.621,5.737-9.046,11.772-9.069,12.938-.047,25.878-.018,38.818-.019Q4408.779,7062.544,4428.837,7062.546Zm-63,118.261c-3.516,0-4.181.676-4.181,4.25q0,28.137,0,56.271c0,3.571.633,4.212,4.222,4.212q62.856,0,125.712,0c3.548,0,4.179-.654,4.18-4.256q0-28.228.011-56.457c0-3.231-.77-4.021-4.046-4.021h-62.949Q4397.31,7180.805,4365.835,7180.808Zm1.431,59.138V7186.39H4490.16v53.555Zm-13.184-155.88a15.017,15.017,0,0,0-1.853.061,2.661,2.661,0,0,0-.359,5.218,7.932,7.932,0,0,0,2.017.2q74.726.013,149.452,0a9.021,9.021,0,0,0,2.2-.2,2.656,2.656,0,0,0-.34-5.211,16.671,16.671,0,0,0-2.038-.067q-37.224,0-74.448,0Q4391.4,7084.063,4354.082,7084.065Zm57.674,78.848c-4.643,0-9.286-.022-13.928.014-2.1.017-3.452,1.524-2.98,3.293.435,1.632,1.667,2.175,3.253,2.173q8.635-.014,17.27,0,14.3,0,28.6.006c1.556,0,2.868-.371,3.385-1.991.612-1.911-.787-3.484-3.1-3.49-7.676-.019-15.352-.007-23.027-.006Q4416.491,7162.914,4411.755,7162.913Zm50.56-17.222c-3,0-4.4.889-4.354,2.793.041,1.851,1.341,2.689,4.288,2.691q16.344.012,32.687-.009c.676,0,1.566.138,1.983-.222.808-.7,1.873-1.714,1.854-2.579s-1.128-1.829-1.965-2.491c-.437-.346-1.314-.171-1.992-.172q-8.172-.015-16.344-.008Q4470.394,7145.691,4462.315,7145.691Zm-54.256,5.476a9.471,9.471,0,0,0,2.207-.181,2.67,2.67,0,0,0-.057-5.144,8.857,8.857,0,0,0-2.026-.143q-14-.015-28-.006a10.574,10.574,0,0,0-1.847.1,2.666,2.666,0,0,0-.12,5.224,9.948,9.948,0,0,0,2.027.148q6.862.018,13.724,0C4398.662,7151.174,4403.36,7151.181,4408.059,7151.167Zm64.5,11.75c-2.2.009-3.464,1.027-3.457,2.717s1.3,2.745,3.474,2.749q11.489.023,22.977,0c2.115,0,3.427-1.167,3.356-2.861-.069-1.651-1.267-2.6-3.374-2.605-3.83-.014-7.659,0-11.488,0S4476.391,7162.9,4472.562,7162.917Zm-35.652-17.2c-1.912.048-3.1,1.137-3.093,2.71s1.173,2.694,3.1,2.719q6.475.082,12.953,0c1.931-.026,3.091-1.147,3.093-2.723s-1.18-2.658-3.1-2.7c-2.158-.052-4.317-.012-6.477-.012S4439.068,7145.664,4436.91,7145.718Zm-58.113,17.216a2.476,2.476,0,0,0-2.649,2.509,2.41,2.41,0,0,0,2.3,2.841,78.174,78.174,0,0,0,9.251-.029,2.389,2.389,0,0,0,2.189-2.916,2.451,2.451,0,0,0-2.566-2.4c-1.418-.059-2.841-.013-4.262-.015S4380.216,7162.884,4378.8,7162.934Zm-16.83.006a2.464,2.464,0,0,0-2.535,2.442,2.414,2.414,0,0,0,2.241,2.888,44.277,44.277,0,0,0,7.22.006,2.447,2.447,0,0,0,2.292-2.87,2.548,2.548,0,0,0-2.726-2.479c-.989-.021-1.979,0-2.968,0C4364.316,7162.926,4363.138,7162.872,4361.967,7162.94Zm93.073,0a2.526,2.526,0,0,0-2.618,2.569,2.407,2.407,0,0,0,2.2,2.748,43.423,43.423,0,0,0,7.194.012,2.449,2.449,0,0,0,2.251-2.891,2.512,2.512,0,0,0-2.558-2.435c-1.045-.058-2.1-.011-3.144-.012C4457.259,7162.928,4456.147,7162.886,4455.04,7162.938Zm-32.09-11.834a32.931,32.931,0,0,0,3.514-.025,2.462,2.462,0,0,0,2.4-2.754,2.387,2.387,0,0,0-2.413-2.543c-2.279-.111-4.57-.111-6.851-.013a2.446,2.446,0,0,0-2.5,2.665,2.508,2.508,0,0,0,2.52,2.668c1.1.1,2.221.019,3.333.019Zm-61.154-5.324a2.409,2.409,0,0,0-2.368,2.583,2.337,2.337,0,0,0,2.247,2.674,63.666,63.666,0,0,0,7.211,0,2.392,2.392,0,0,0,2.311-2.647,2.452,2.452,0,0,0-2.368-2.607c-1.161-.115-2.343-.023-3.516-.026S4362.958,7145.672,4361.8,7145.781Zm20.352-72.686a3.256,3.256,0,0,0-.281,6.5,3.255,3.255,0,0,0,.281-6.5Zm-10,3.064a3.2,3.2,0,1,0-3.1,3.44A3.248,3.248,0,0,0,4372.147,7076.159Zm-19.445.341a3.2,3.2,0,1,0,3.134-3.412A3.224,3.224,0,0,0,4352.7,7076.5Zm67.151,116.159a2.557,2.557,0,0,0-2.689,2.52,2.507,2.507,0,0,0,2.333,2.85,16.988,16.988,0,0,0,4.436,0,2.485,2.485,0,0,0,2.305-2.858,2.535,2.535,0,0,0-2.676-2.513c-.617-.031-1.236,0-1.854,0S4420.471,7192.636,4419.854,7192.659Zm-42.054,0a2.55,2.55,0,0,0-2.622,2.586,2.477,2.477,0,0,0,2.229,2.757,17.03,17.03,0,0,0,4.616,0,2.469,2.469,0,0,0,2.231-2.912,2.508,2.508,0,0,0-2.561-2.429c-.615-.045-1.236-.007-1.854-.009C4379.159,7192.655,4378.478,7192.623,4377.8,7192.662Zm16.063-.014c-.618,0-1.237-.025-1.854,0a2.674,2.674,0,0,0-2.822,2.575,2.7,2.7,0,0,0,2.749,2.866,26.594,26.594,0,0,0,3.706-.007,2.714,2.714,0,1,0-.11-5.427c-.555-.034-1.112-.005-1.669-.005Zm41.863,5.447a13.755,13.755,0,0,0,2.037-.017,2.7,2.7,0,0,0,2.524-2.733,2.67,2.67,0,0,0-2.735-2.68,33.949,33.949,0,0,0-3.893.018,2.465,2.465,0,0,0-2.474,2.505,2.519,2.519,0,0,0,2.143,2.817,13.718,13.718,0,0,0,2.4.151Zm25.981-5.426a2.546,2.546,0,0,0-2.572,2.632,2.483,2.483,0,0,0,2.278,2.717,17.3,17.3,0,0,0,4.615-.026,2.454,2.454,0,0,0,2.176-2.947,2.515,2.515,0,0,0-2.6-2.385c-.616-.034-1.236-.006-1.854,0C4463.066,7192.661,4462.383,7192.619,4461.707,7192.669Zm14.078-.007a2.509,2.509,0,0,0-2.613,2.373,2.447,2.447,0,0,0,2.164,2.955,17.062,17.062,0,0,0,4.791-.029,2.429,2.429,0,0,0,2.106-2.835,2.534,2.534,0,0,0-2.554-2.458c-.677-.041-1.359-.007-2.04-.009C4477.021,7192.657,4476.4,7192.629,4475.785,7192.662Zm-97.967,11.885a2.542,2.542,0,0,0-2.634,2.571,2.516,2.516,0,0,0,2.394,2.8,17.463,17.463,0,0,0,4.435-.024,2.473,2.473,0,0,0,2.247-2.9,2.516,2.516,0,0,0-2.547-2.447c-.615-.048-1.236-.008-1.854-.007C4379.178,7204.542,4378.5,7204.512,4377.818,7204.547Zm15.843,5.444c.618,0,1.24.042,1.854-.008a2.818,2.818,0,0,0,2.805-2.854,2.74,2.74,0,0,0-2.844-2.589c-1.234-.049-2.476-.052-3.708.014a2.483,2.483,0,0,0-2.557,2.429,2.546,2.546,0,0,0,2.233,2.927,10.677,10.677,0,0,0,2.216.026Zm28.062-.021a16.183,16.183,0,0,0,2.037-.014,2.652,2.652,0,0,0,2.48-2.916,2.533,2.533,0,0,0-2.687-2.5c-1.235-.04-2.473-.035-3.708,0a2.606,2.606,0,0,0-2.7,2.522,2.736,2.736,0,0,0,2.54,2.9,17.173,17.173,0,0,0,2.037.013Zm13.9.02c.619,0,1.24.042,1.854-.008a2.825,2.825,0,0,0,2.816-2.849,2.726,2.726,0,0,0-2.836-2.59c-1.235-.049-2.476-.054-3.709.008a2.475,2.475,0,0,0-2.563,2.418,2.552,2.552,0,0,0,2.223,2.937,10.408,10.408,0,0,0,2.215.027Zm28.083-5.447c-.68,0-1.363-.043-2.039.008a2.553,2.553,0,0,0-2.535,2.483,2.354,2.354,0,0,0,1.962,2.75,18.007,18.007,0,0,0,5.143.019,2.378,2.378,0,0,0,1.964-2.914,2.489,2.489,0,0,0-2.457-2.331c-.675-.06-1.359-.011-2.039-.011Zm14.119-.006c-.68,0-1.362-.037-2.039.007a2.529,2.529,0,0,0-2.63,2.555,2.415,2.415,0,0,0,2.175,2.771,17.711,17.711,0,0,0,4.792-.027,2.43,2.43,0,0,0,2.11-2.832,2.537,2.537,0,0,0-2.553-2.459c-.615-.041-1.236-.007-1.854-.007Zm-14.184,17.3a12.011,12.011,0,0,0,2.219-.023,2.555,2.555,0,0,0,2.352-2.834,2.5,2.5,0,0,0-2.627-2.551c-1.295-.059-2.6-.05-3.893.01a2.5,2.5,0,0,0-2.554,2.453,2.577,2.577,0,0,0,2.286,2.9,11.18,11.18,0,0,0,2.216.025Zm13.991-5.424c-.556,0-1.114-.024-1.668,0a2.711,2.711,0,0,0-.266,5.416,20.36,20.36,0,0,0,4.253-.054,2.5,2.5,0,0,0,2.286-2.711,2.546,2.546,0,0,0-2.567-2.637c-.676-.052-1.359-.009-2.039-.009Zm-99.837.017a2.54,2.54,0,0,0-2.619,2.583,2.476,2.476,0,0,0,2.232,2.754,17.19,17.19,0,0,0,4.613,0,2.461,2.461,0,0,0,2.228-2.911,2.5,2.5,0,0,0-2.562-2.423c-.615-.041-1.235-.007-1.854-.005C4379.158,7216.428,4378.477,7216.4,4377.8,7216.434Zm15.963-.015c-.618,0-1.237-.021-1.854,0a2.551,2.551,0,0,0-2.706,2.482,2.608,2.608,0,0,0,2.467,2.92,19.535,19.535,0,0,0,4.253-.029,2.694,2.694,0,0,0-.307-5.367c-.616-.026-1.235,0-1.854,0Zm27.9,5.455c.618,0,1.24.047,1.854-.009a2.734,2.734,0,0,0,2.741-2.882,2.644,2.644,0,0,0-2.827-2.557c-1.235-.045-2.475-.059-3.707.014a2.529,2.529,0,0,0-2.567,2.634,2.57,2.57,0,0,0,2.292,2.722,11.4,11.4,0,0,0,2.216.025Zm14.183-5.459c-.618,0-1.237-.027-1.854,0a2.66,2.66,0,0,0-2.822,2.569,2.7,2.7,0,0,0,2.745,2.868,25.575,25.575,0,0,0,3.706,0,2.794,2.794,0,0,0,2.686-2.784,2.754,2.754,0,0,0-2.792-2.642c-.554-.036-1.112-.005-1.668-.005Zm-58.184,11.914a2.53,2.53,0,0,0-2.481,2.528,2.348,2.348,0,0,0,2.019,2.7,18.612,18.612,0,0,0,5.136-.023,2.356,2.356,0,0,0,1.911-2.938,2.49,2.49,0,0,0-2.508-2.277c-.615-.043-1.235-.007-1.853,0C4379.142,7228.319,4378.4,7228.268,4377.66,7228.329Zm16.169-.025c-.618,0-1.238-.029-1.854,0a2.711,2.711,0,0,0-.185,5.418,20.208,20.208,0,0,0,4.07-.029,2.7,2.7,0,0,0-.179-5.379c-.616-.037-1.236-.006-1.853-.006Zm67.958.01a2.543,2.543,0,0,0-2.652,2.551,2.447,2.447,0,0,0,2.2,2.769,17.812,17.812,0,0,0,4.789-.03,2.4,2.4,0,0,0,2.089-2.831,2.493,2.493,0,0,0-2.533-2.45c-.676-.05-1.359-.009-2.039-.011C4463.023,7228.309,4462.4,7228.285,4461.788,7228.313Zm15.852,5.407a12.306,12.306,0,0,0,2.218-.023,2.589,2.589,0,0,0,2.378-2.83,2.514,2.514,0,0,0-2.649-2.547,12.969,12.969,0,0,0-4.051.1,4.058,4.058,0,0,0-2.292,2.2,2.209,2.209,0,0,0,1.658,2.877,15.5,15.5,0,0,0,2.726.377Zm-71.857-41.055a2.485,2.485,0,0,0-2.558,2.414,2.452,2.452,0,0,0,2.192,2.924,16.673,16.673,0,0,0,4.606,0,2.692,2.692,0,0,0-.355-5.338c-.614-.043-1.233-.007-1.851-.008C4407.139,7192.659,4406.458,7192.621,4405.782,7192.666Zm43.828,5.433a19.359,19.359,0,0,0,2.035-.012,2.669,2.669,0,0,0,2.575-2.825,2.594,2.594,0,0,0-2.767-2.6c-1.232-.046-2.471-.056-3.7.015a2.468,2.468,0,0,0-2.562,2.6,2.564,2.564,0,0,0,2.389,2.8,11.794,11.794,0,0,0,2.032.02Zm-43.835,6.451a2.693,2.693,0,0,0-.352,5.339,16.8,16.8,0,0,0,4.606,0,2.453,2.453,0,0,0,2.189-2.927,2.483,2.483,0,0,0-2.558-2.413c-.614-.041-1.233-.007-1.85,0C4407.132,7204.542,4406.451,7204.5,4405.775,7204.55Zm44.107-.021c-.617,0-1.235-.023-1.851,0-1.733.077-2.768,1-2.856,2.518a2.671,2.671,0,0,0,2.672,2.92,24.548,24.548,0,0,0,3.883-.021,2.6,2.6,0,0,0,2.476-2.9,2.52,2.52,0,0,0-2.658-2.513c-.554-.029-1.111,0-1.666,0Zm-42.189,11.884c-.555,0-1.111-.023-1.665,0a2.629,2.629,0,0,0-2.832,2.544,2.685,2.685,0,0,0,2.7,2.894,20.969,20.969,0,0,0,3.88-.033,2.519,2.519,0,0,0,2.454-2.729,2.48,2.48,0,0,0-2.505-2.652c-.673-.059-1.356-.009-2.035-.009Zm42.021,5.444a15.931,15.931,0,0,0,2.032-.015,2.646,2.646,0,0,0,2.463-2.917,2.51,2.51,0,0,0-2.672-2.5c-1.293-.043-2.594-.064-3.883.022a2.445,2.445,0,0,0-2.463,2.5,2.518,2.518,0,0,0,2.13,2.817,13.647,13.647,0,0,0,2.391.157Z" transform="translate(0 0)" fill="#0c4b9b"/>
  </g>
</svg>
