<svg xmlns="http://www.w3.org/2000/svg" width="154.398" height="180.801" viewBox="0 0 154.398 180.801">
  <g id="Group_30" data-name="Group 30" transform="translate(5298.857 1921.121)">
    <path id="Path_112" data-name="Path 112" d="M-5144.8-1772.451h37.346v6.1H-5144.8Zm37.334,24.539v-6.022H-5144.9v6.022Zm.021,12.391h-37.4v6.109h37.4Zm-37.426,18.485v6.025h37.449v-6.025Zm0,18.427v6.033h37.438v-6.033Zm37.438,24.383v-5.963h-37.439v5.963Zm-37.4,18.477h37.375v-6.12h-37.375Z" transform="translate(-87.782 -84.767)" fill="#ffd112"/>
    <path id="Path_113" data-name="Path 113" d="M-5184.6-1869.468h-58.643v129.111h-6.348v-14.193q.009-58.339.025-116.678a9.573,9.573,0,0,1,.158-2.556c.453-1.607,1.74-2.156,3.311-2.158,2.629,0,5.258,0,8.141,0,0-4.077-.018-7.846.006-11.614.025-3.288.891-4.175,4.219-4.186,8.227-.028,16.447,0,24.672,0h3.688v-7.289c-.752-.041-1.436-.109-2.123-.11-5.719-.009-11.441,0-17.162-.016a7.233,7.233,0,0,1-1.9-.21,2.908,2.908,0,0,1-2.314-3.371,2.824,2.824,0,0,1,3.018-2.729c2.783-.06,5.566-.017,8.619-.017.051-1.1.119-2,.123-2.9.014-2.788-.027-5.576.008-8.364.039-2.9,1.205-4.426,3.26-4.376,1.975.047,3.053,1.539,3.074,4.321.021,3,.1,6.01-.029,9.007-.078,1.8.557,2.411,2.316,2.306,2-.12,4-.072,6-.029,2.389.052,3.514,1.187,3.541,3.594.037,3.273.01,6.547.01,10.18,1.828,0,3.447-.018,5.068,0,2.988.042,3.979,1.056,3.971,4-.006,3.783,0,7.565,0,11.784,2.229,0,4.336,0,6.447,0,4.635,0,5.182.589,5.178,5.158q-.029,25.845-.012,51.69,0,38.5-.006,77c0,.553-.074,1.1-.121,1.751h-6.2Zm-46.916-6.658h35.131v-9.068h-35.131Zm-28.16,57.038c.182-1.873-.344-2.583-2.439-2.562-10.652.114-21.307.043-31.965.039-3.838,0-4.773.943-4.773,4.818q.009,37,.016,74v2.386h6.389v-74.835h32.752C-5259.7-1816.712-5259.795-1817.911-5259.678-1819.089Zm115.207,77.782q.012-25.519.006-51.039c0-2.625-1.154-3.718-3.846-3.729q-8.47-.036-16.943,0c-.68,0-1.357.123-2.166.2,0,1.713.043,3.206-.012,4.694-.045,1.159.508,1.48,1.561,1.462,2.289-.039,4.576-.011,6.863-.011h8.27v49.408h6.148C-5144.535-1740.759-5144.473-1741.033-5144.471-1741.307Zm-130.57-11.417h-6.094v12.32h6.094Zm10.357-.049c-.5.039-1.365.553-1.371.867-.1,3.826-.061,7.655-.061,11.44h6.2v-12.348C-5261.7-1752.814-5263.193-1752.888-5264.684-1752.772Zm-10.373-50.332h-6.027v12.216h6.027Zm8.924.011c0,3.833-.029,7.52.041,11.2a1.45,1.45,0,0,0,.932,1.061c1.73.109,3.477.051,5.283.051v-12.315Zm-14.986,25.286v12.12h6.1v-12.12Zm15.141,12.084h6.027v-12.16h-6.027Zm105.055,17.342c-.109-5.31.691-4.233-4.605-4.5-1.461-.074-1.83.595-1.789,1.915.072,2.277.033,4.558.037,6.838,0,1.239,0,2.479,0,3.773h6.365C-5160.916-1743.144-5160.871-1745.764-5160.924-1748.38Zm-6.146-17.287h5.936v-12.244h-5.936Z" transform="translate(-0.001 0)" fill="#0c4b9b"/>
  </g>
</svg>
