<svg xmlns="http://www.w3.org/2000/svg" width="169.835" height="169.415" viewBox="0 0 169.835 169.415">
  <g id="Group_627" data-name="Group 627" transform="translate(-3587.391 -7004.924)">
    <path id="Path_520" data-name="Path 520" d="M3739.187,7018.818H3609.378v69.633c-.005,2.7-.814,3.9-2.591,3.86-1.718-.042-2.523-1.247-2.524-3.808q0-12.84,0-25.68,0-21.168,0-42.337v-1.726a18.446,18.446,0,0,1-1.918-.147,2.48,2.48,0,0,1-2.3-2.591c-.018-2.833-.049-5.669.012-8.5.038-1.792,1.062-2.587,3.162-2.589q16.047-.014,32.1-.007,54.65,0,109.3,0c3.321,0,3.936.613,3.931,3.93q0,2.689-.005,5.379c0,3.833-.29,4.168-4.231,4.562v1.981q0,33.661,0,67.323c0,.52.032,1.044-.013,1.562a2.657,2.657,0,0,1-2.522,2.6,2.545,2.545,0,0,1-2.561-2.695c-.041-5.263-.021-10.527-.023-15.79q0-26.548-.006-53.1Zm4.147-8.667H3605.306v3.249h138.028Zm-62.321,157.725c-.27.607-.511,1.169-.768,1.723a7.5,7.5,0,0,1-14.064-5.134c1.729-5.627,3.5-11.247,5.5-16.783,1.556-4.325,4.8-6.958,9.513-7.929-.627-2.491-1.226-4.883-1.832-7.271-1.022-4.028-2.063-8.052-3.068-12.084-.558-2.241.485-3.634,2.8-3.647q9.28-.052,18.561-.005c1.941.007,3.017.983,3.013,2.591s-1.043,2.508-3.04,2.516c-4.51.017-9.02.006-13.531.007h-1.941a6.318,6.318,0,0,0,.062,1.029c1.416,5.584,2.842,11.165,4.331,17,.358-.508.59-.807.79-1.125a10.555,10.555,0,0,1,8.6-5.072c3.065-.238,3.075-.245,3.526-3.211.251-1.655.322-3.35.71-4.972a14.867,14.867,0,0,1,10.48-11.429c.489-.156.983-.293,1.6-.475-3.171-7.365-2.01-13.681,4.778-18.229a13.169,13.169,0,0,1,15.554.926c4.836,3.833,6.031,9.457,3.517,16.938a8.548,8.548,0,0,0,1.317.172c7.677-.187,14.96,4.911,15.954,14.974,1.079,10.922,2.438,21.818,3.731,32.72.785,6.612-2.132,11.463-7.976,12.906a14.448,14.448,0,0,1-3.438.3q-26.021.028-52.041.013C3686.518,7174.314,3685.081,7173.575,3681.013,7167.875Zm16.584-22.34c-2.138.325-4.007.62-5.879.89-3.729.536-5.338,2.162-5.589,5.859-.253,3.75-.44,7.5-.59,11.259a5.158,5.158,0,0,0,5.267,5.624c2.138.063,4.279.024,6.418.024q24.462,0,48.924-.007c4.134,0,6.191-2.217,5.933-6.3-.069-1.095-.229-2.184-.355-3.275-1.25-10.79-2.448-21.587-3.776-32.368a9.472,9.472,0,0,0-9.478-8.635q-12.053-.2-24.112.017a9.544,9.544,0,0,0-9.264,8.5c-1.074,8.133-2.072,16.277-3.087,24.417-.257,2.062-1.226,3.077-2.885,2.929-1.613-.143-2.42-1.353-2.212-3.455C3697.081,7149.287,3697.337,7147.576,3697.6,7145.535Zm26.535-32.128a27.915,27.915,0,0,1,3.292.025c1.833.217,2.923-.7,3.825-2.114a8.476,8.476,0,0,0-1.676-10.844,8.234,8.234,0,0,0-10.794-.158,8.489,8.489,0,0,0-1.9,10.942c.925,1.483,2.074,2.4,3.965,2.171A27.012,27.012,0,0,1,3724.132,7113.407Zm-41.406,31.265c-3.025.554-5.149,1.768-6.046,4.329-1.946,5.553-3.74,11.16-5.539,16.763a2.365,2.365,0,0,0,1.509,3.189,2.322,2.322,0,0,0,3.01-1.656c1.865-5.865,4.939-11.336,5.672-17.575a17.335,17.335,0,0,1,1-2.753A19.751,19.751,0,0,0,3682.726,7144.672Zm15.813-5.5-.477-.521c-2.065.251-4.344-.072-6,2.485,1.982-.3,3.614-.469,5.2-.83C3697.75,7140.195,3698.117,7139.562,3698.539,7139.169Zm-40.374.365,4.5-17.572c-.812-.042-1.415-.1-2.016-.1-4.453-.007-8.906,0-13.358-.007-2.211-.005-3.42-.939-3.38-2.577.038-1.566,1.259-2.53,3.3-2.535q9.021-.019,18.042,0c2.693.009,3.721,1.412,3.037,4.068-2.03,7.882-4.094,15.754-6.051,23.653a7.136,7.136,0,0,0,.268,2.928,39.5,39.5,0,0,1,1,4.172c.329,3.8.568,7.611.68,11.425.2,6.658-4.21,11.3-10.831,11.316q-27.583.073-55.167,0c-6.911-.019-11.484-5.33-10.7-12.217q1.975-17.394,3.941-34.79a15.169,15.169,0,0,1,14.635-13.846c.786-.044,1.573-.079,2.612-.13-1.929-4.017-2.234-7.929-.509-11.871a13.084,13.084,0,0,1,5.372-6.177,13.6,13.6,0,0,1,15.846,1.31c4.746,4.079,5.813,9.976,2.929,16.994,10.365,2.43,12.812,10.309,13.057,19.735C3650.479,7133.624,3655.252,7134.438,3658.165,7139.535Zm-11.117,5.953c.244,2.043.415,3.7.645,5.349.283,2.034-.429,3.354-2.005,3.608-1.638.265-2.747-.675-3.015-2.739-1.033-7.96-2.06-15.923-3.017-23.894-.652-5.43-4.422-9.149-9.888-9.232q-11.618-.179-23.24-.006c-5.54.078-9.4,3.813-10.017,9.311q-1.965,17.477-3.968,34.952c-.417,3.656,1.734,6.325,5.356,6.332q27.923.053,55.845,0a5.071,5.071,0,0,0,5.317-5.538c-.148-4.158-.379-8.316-.723-12.462a4.691,4.691,0,0,0-3.662-4.354C3652.291,7146.2,3649.816,7145.95,3647.048,7145.488Zm-26.588-32.082a27.784,27.784,0,0,1,3.465.027c1.773.225,2.828-.683,3.718-2a8.547,8.547,0,0,0-1.768-11.1,8.278,8.278,0,0,0-11.068.35,8.436,8.436,0,0,0-1.156,11.041,3.466,3.466,0,0,0,3.344,1.708A33.89,33.89,0,0,1,3620.46,7113.406Zm25.8,25.245c.25,1.691,2.959,2.579,6.131,2.172C3650.879,7138.575,3648.58,7138.855,3646.264,7138.651Zm12.467-37.251c5.6,0,11.2-.013,16.808.009,1.239.005,2.294-.223,2.887-1.452.927-1.923-.494-3.67-3.057-3.674q-16.635-.018-33.27,0c-2.175,0-3.343.976-3.291,2.668.05,1.626,1.121,2.446,3.288,2.45q8.317.015,16.635,0Z" transform="translate(0)" fill="#0c4b9b"/>
    <path id="Path_521" data-name="Path 521" d="M3742.731,7121.2a58.712,58.712,0,0,1-6.375,1.8,12.459,12.459,0,0,1-5.232-.015c-5-1.4-9.929-3.048-14.846-4.719-6.012-2.042-7.7-8.639-3.31-12.776a7.069,7.069,0,0,1,7.247-1.636c4.036,1.2,8.011,2.615,12.051,3.805a6.151,6.151,0,0,0,3.173.04c4.125-1.1,8.211-2.347,12.307-3.558.593-.175,1.159-.441,1.762-.675-4.415-6.641-4.112-13.088.74-17.262a11.91,11.91,0,0,1,15.971.245c3.6,3.432,6.054,10,.639,16.755q10.173,8.218,20.343,16.438c3.338,2.707,4.265,6.254,2.586,9.69-.842,1.723-2.2,2.346-3.621,1.668-1.359-.647-1.82-2.04-1.066-3.681a2.593,2.593,0,0,0-.865-3.492c-5.989-4.824-11.871-9.784-17.965-14.469-3.862-2.969-8.378-3.028-12.9-1.7-5.868,1.722-11.687,3.616-17.572,5.276a7.658,7.658,0,0,1-3.99-.067c-4.215-1.2-8.365-2.635-12.545-3.963-1.877-.6-3.054-.123-3.52,1.366-.418,1.332.31,2.495,2.03,3.062,4.878,1.609,9.755,3.225,14.665,4.729a5.463,5.463,0,0,0,2.846-.042c2.9-.77,5.752-1.713,8.635-2.544,2.848-.822,4.192.469,4.1,3.42-.266,8.148-.376,16.3-.543,24.453-.051,2.486-.044,4.975-.143,7.459-.078,1.969-1.079,3.026-2.648,2.977s-2.489-1.146-2.454-3.13q.231-13.616.509-27.232C3742.741,7122.792,3742.731,7122.162,3742.731,7121.2Zm15.315-19.392a6.732,6.732,0,1,0-6.687-6.753A6.742,6.742,0,0,0,3758.046,7101.811ZM3719.386,7086c3.621,2.38,7.232,4.777,10.86,7.147,2.012,1.314,2.822,1.223,4.551-.473q9.723-9.534,19.43-19.083a7.1,7.1,0,0,0,1.142-1.295,2.107,2.107,0,0,0-.5-3.077,5.058,5.058,0,0,0-2.994-.3c-.518.063-.971.765-1.424,1.208q-8.669,8.5-17.311,17.033a1.541,1.541,0,0,1-2.346.249c-3.678-2.5-7.426-4.9-11.119-7.384-2.615-1.755-3.519-1.63-5.46.922-2.974,3.911-6.013,7.775-8.885,11.76a2.528,2.528,0,0,1-3.455,1.051c-3.58-1.291-7.2-2.482-10.872-3.487a3.828,3.828,0,0,0-3.136.572c-3.785,3.651-7.431,7.451-11,11.315a3.163,3.163,0,0,0-.53,2.648,2.75,2.75,0,0,0,1.994,1.562,3.81,3.81,0,0,0,2.523-1.136c2.889-2.833,5.7-5.752,8.46-8.708a2.086,2.086,0,0,1,2.539-.665c3.661,1.24,7.358,2.375,11.043,3.547,2.761.878,3.134.764,4.846-1.482q4.362-5.725,8.719-11.453c.376-.494.769-.975,1.213-1.538C3718.328,7085.336,3718.865,7085.654,3719.386,7086Zm54.853,43.033c1.517,1.072,2.868.982,3.837-.228,1-1.254.745-2.669-.79-3.879-2.129-1.68-4.221-3.426-6.483-4.907a3.838,3.838,0,0,0-3.116-.459,3.494,3.494,0,0,0-1.355,2.646c-.166,3.109-.075,6.231-.057,9.35.011,1.907.984,3.079,2.507,3.092s2.558-1.175,2.6-3.046c.029-1.427.005-2.854.005-4.691C3772.583,7127.8,3773.4,7128.434,3774.238,7129.029Z" transform="translate(-57.961 -41.69)" fill="#ffd112"/>
  </g>
</svg>
