<svg xmlns="http://www.w3.org/2000/svg" width="23.446" height="17.916" viewBox="0 0 23.446 17.916">
  <path id="Path_638" data-name="Path 638" d="M6161.1,4474.918a2.154,2.154,0,0,1,.215-.315q6.1-6.105,12.2-12.206a1.98,1.98,0,0,1,2.921,2.673c-.062.068-.129.132-.195.2l-13.668,13.659a2,2,0,0,1-3.1,0q-2.657-2.66-5.318-5.316a1.922,1.922,0,0,1-.54-2.056,1.89,1.89,0,0,1,1.659-1.368,1.951,1.951,0,0,1,1.693.632q1.928,1.929,3.862,3.852C6160.886,4474.731,6160.955,4474.79,6161.1,4474.918Z" transform="translate(-6153.505 -4461.751)" fill="#2dd540"/>
</svg>
