<svg xmlns="http://www.w3.org/2000/svg" width="16.193" height="16.213" viewBox="0 0 16.193 16.213">
  <path id="Path_639" data-name="Path 639" d="M-364.587,268.349c-.124.124-.241.254-.382.4,1.324,1.322,2.626,2.627,3.935,3.925a2.384,2.384,0,0,1,.778,2.473,2.285,2.285,0,0,1-3.823,1.005c-1.249-1.181-2.442-2.42-3.654-3.64a6.161,6.161,0,0,1-.448-.573c-1.319,1.319-2.546,2.546-3.774,3.771a7.986,7.986,0,0,1-.627.586,2.257,2.257,0,0,1-3.111-.165,2.258,2.258,0,0,1-.035-3.155c1.236-1.3,2.519-2.546,3.791-3.808a3.279,3.279,0,0,1,.551-.351c-1.512-1.5-2.9-2.841-4.253-4.225a2.292,2.292,0,0,1,.668-3.758,2.294,2.294,0,0,1,2.691.6c.946.928,1.88,1.869,2.812,2.811.39.394.765.8,1.2,1.263,1.419-1.427,2.754-2.8,4.126-4.14a2.288,2.288,0,0,1,3.873.925,2.317,2.317,0,0,1-.713,2.438Q-362.781,266.545-364.587,268.349Z" transform="translate(376.353 -260.63)" fill="#ff5f5f"/>
</svg>
