<svg xmlns="http://www.w3.org/2000/svg" width="38.929" height="28.548" viewBox="0 0 38.929 28.548">
  <path id="Path_219" data-name="Path 219" d="M2017.691,2089.152h-16.015a3.336,3.336,0,0,1-3.448-3.448q0-10.805,0-21.61a3.334,3.334,0,0,1,3.489-3.488q16.035,0,32.071,0a3.336,3.336,0,0,1,3.367,3.366q0,10.927,0,21.853a3.336,3.336,0,0,1-3.326,3.325Q2025.759,2089.156,2017.691,2089.152Zm15.5-2.613-9.958-13.745c-.148.1-.26.169-.369.247-.956.682-1.909,1.369-2.867,2.047a3.2,3.2,0,0,1-3.916,0q-1.17-.835-2.339-1.673c-.448-.32-.9-.636-1.358-.963l-10.2,14.09ZM2004,2063.222c.156.123.254.207.359.282l13.055,9.31c.577.412.689.412,1.252.01l12.983-9.273c.125-.089.246-.185.435-.329Zm6.259,7.7-9.414-6.726v19.731Zm24.287-6.229-9.193,6.567,9.193,12.689Z" transform="translate(-1998.226 -2060.605)" fill="#f5f5f5"/>
</svg>
