<svg xmlns="http://www.w3.org/2000/svg" width="64.808" height="64.836" viewBox="0 0 64.808 64.836">
  <path id="Path_494" data-name="Path 494" d="M853.291,6236.1c-1.472-.163-2.951-.282-4.416-.5a32.36,32.36,0,1,1,35.683-42.42,31.385,31.385,0,0,1,1.7,8.791c.015.343.087.685.133,1.027v1.785c-.16,1.281-.278,2.569-.488,3.842a32.2,32.2,0,0,1-11.005,19.644,48.4,48.4,0,0,1-3.976,2.926c-.787.552-1.5.453-1.919-.172-.437-.651-.229-1.358.62-1.888a29.766,29.766,0,0,0,10.73-11.354,28.432,28.432,0,0,0,3.294-17.386c-1.645-12.578-8.559-21.245-20.534-25.174a29.9,29.9,0,1,0,.412,56.786c.2-.067.4-.155.607-.222.906-.3,1.559-.057,1.816.658s-.08,1.375-.99,1.646a50.041,50.041,0,0,1-4.915,1.318c-1.8.342-3.633.468-5.452.688Zm4.991-45.026a2.861,2.861,0,0,0-3.008,3.1c-.013.946-.005,1.893,0,2.839.005,1.325.414,1.728,1.76,1.732,1.155,0,2.309,0,3.523,0l-.3,3.44c-.111.047-.16.086-.209.087q-1.5.017-3,.025c-1.407.009-1.778.375-1.779,1.775q0,7.341,0,14.682c0,.314,0,.63,0,1.023-.639,0-1.176-.024-1.709.006a1.236,1.236,0,1,0,.024,2.464c.593.029,1.189.009,1.784.009,1.83,0,2.365-.535,2.366-2.369q0-7.057,0-14.114v-1.015c1.083,0,2.054.017,3.024,0a1.768,1.768,0,0,0,1.913-1.776c.131-1.535.259-3.069.354-4.606.087-1.409-.525-2.065-1.929-2.1-.919-.022-1.84.021-2.757-.026-.207-.011-.558-.264-.573-.43-.064-.718-.027-1.444-.027-2.108.161-.082.208-.126.256-.127,1.054-.013,2.108-.012,3.162-.032a1.784,1.784,0,0,0,2.005-2q.017-2.231,0-4.462a1.774,1.774,0,0,0-1.975-2.027c-1.838-.022-3.679-.055-5.515.007a7.371,7.371,0,0,0-6.419,3.747,1.219,1.219,0,1,0,2.048,1.315c.063-.087.116-.182.175-.273a4.744,4.744,0,0,1,4.122-2.311c1.514-.017,3.028-.01,4.542,0a3.041,3.041,0,0,1,.525.092v3.439C859.838,6191.067,859.059,6191.042,858.282,6191.072Zm-10.019,14.642q0,7.26,0,14.52c0,1.005.457,1.579,1.226,1.564.747-.014,1.195-.57,1.2-1.521q.005-8.233,0-16.466c0-1.089-.415-1.5-1.527-1.516-.639-.012-1.279,0-1.945,0v-3.551c.73,0,1.4.019,2.075,0a1.261,1.261,0,0,0,1.394-1.417c.013-1.325.009-2.65,0-3.975-.006-.92-.5-1.49-1.254-1.463-.726.025-1.159.559-1.167,1.46-.008.94,0,1.88,0,2.929-.64,0-1.2-.028-1.758.006a1.705,1.705,0,0,0-1.787,1.876q-.03,2.352,0,4.7a1.74,1.74,0,0,0,1.865,1.891c.532.02,1.066,0,1.68,0Z" transform="translate(-821.582 -6171.262)" fill="#fff"/>
</svg>
