<svg xmlns="http://www.w3.org/2000/svg" width="144.809" height="140.139" viewBox="0 0 144.809 140.139">
  <g id="Group_630" data-name="Group 630" transform="translate(-2512.154 -7275.599)">
    <path id="Path_526" data-name="Path 526" d="M2666.834,7349.512a19,19,0,0,1-1.437,2.252,2.588,2.588,0,0,0-.38,3.29,21.217,21.217,0,0,1,1.087,2.919,11.84,11.84,0,0,1-2.336-.487,3.46,3.46,0,0,0-4.508.952,14.1,14.1,0,0,1-1.906,1.475,26.192,26.192,0,0,1-.27-3.425,2.365,2.365,0,0,0-1.5-2.509,26.073,26.073,0,0,1-2.4-1.527l.007-.464a27.776,27.776,0,0,1,2.856-1.109,2.257,2.257,0,0,0,1.874-2.064,29.686,29.686,0,0,1,.941-3.4,22.786,22.786,0,0,1,2,2.463,2.562,2.562,0,0,0,3.127,1.353,14.5,14.5,0,0,1,2.557-.144Zm-82.547-13.939a25.849,25.849,0,0,1,3.234.954,3.477,3.477,0,0,1,1.578,1.385,29.851,29.851,0,0,1,1.416,3.563,14.07,14.07,0,0,0,1.366-1.92,3.56,3.56,0,0,1,3.951-2.4,15.416,15.416,0,0,0,2.571-.2c-.911-1.12-1.516-1.959-2.221-2.705a2.244,2.244,0,0,1-.572-2.613,26.342,26.342,0,0,0,.781-3.442,22.62,22.62,0,0,0-2.98,1.156,2.5,2.5,0,0,1-3.158-.368c-.72-.582-1.555-1.023-2.749-1.792.074,1.577.045,2.676.2,3.747a1.871,1.871,0,0,1-.864,2.087c-.934.629-1.781,1.388-2.665,2.091Zm-7.5,14.468a1.928,1.928,0,0,1-1.524-1.667c-.208-1.066-.528-2.111-.8-3.165l-.508-.158c-.615.764-1.285,1.49-1.83,2.3a2.386,2.386,0,0,1-2.542,1.209,29.074,29.074,0,0,0-3.516-.028,27.766,27.766,0,0,0,1.6,2.454,2.8,2.8,0,0,1,.391,3.554,17.763,17.763,0,0,0-1.016,2.912c1.455-.4,2.486-.608,3.454-.98a2.062,2.062,0,0,1,2.468.493,34.884,34.884,0,0,0,2.853,2.249c.109-1.61.254-2.757.243-3.9a1.739,1.739,0,0,1,1-1.735c1-.56,1.938-1.223,3.3-2.1C2578.888,7350.875,2577.867,7350.356,2576.787,7350.041Zm60.249-21a28.345,28.345,0,0,0,.775,3.021,2.121,2.121,0,0,1-.515,2.488c-.746.768-1.367,1.654-2.044,2.489l.245.392a29.185,29.185,0,0,1,3.43.259,3.139,3.139,0,0,1,1.7.963,30.131,30.131,0,0,1,1.993,2.907l.445-.067c.365-.979.807-1.937,1.073-2.942a2.184,2.184,0,0,1,1.994-1.75c1.009-.167,1.993-.482,2.988-.733l.092-.494c-.85-.683-1.663-1.419-2.559-2.035a2,2,0,0,1-.956-2.193,28.088,28.088,0,0,0,.034-3.629c-1.17.751-2.093,1.25-2.9,1.89a2.042,2.042,0,0,1-2.5.271,28.344,28.344,0,0,0-2.913-1.163Zm23.975,45.355c.495.937.938,1.906,1.5,2.8a1.874,1.874,0,0,1,0,2.255c-.581.916-1.027,1.917-1.743,3.288a27.329,27.329,0,0,0,3.673-.492,2.037,2.037,0,0,1,2.383.8c.672.8,1.461,1.493,2.536,2.573a27.121,27.121,0,0,0,.639-3.637,2.054,2.054,0,0,1,1.5-2.029c.951-.4,1.849-.93,3.194-1.622-1.422-.731-2.406-1.3-3.445-1.748a1.79,1.79,0,0,1-1.235-1.737c-.075-1.116-.365-2.217-.639-3.751a25.637,25.637,0,0,0-2.149,2.086,2.743,2.743,0,0,1-3.4,1.1,12.22,12.22,0,0,0-2.6-.341Zm-40.35-44.471a2.088,2.088,0,0,1,.868-2.5c.792-.661,1.5-1.422,2.583-2.464a31.413,31.413,0,0,0-3.718-.63,1.989,1.989,0,0,1-1.943-1.413c-.422-.992-.942-1.942-1.42-2.91l-.541-.009c-.446.879-.952,1.734-1.323,2.644a2.368,2.368,0,0,1-2.391,1.7,17.819,17.819,0,0,0-2.87.489l-.115.463a21.84,21.84,0,0,0,2.005,2,2.392,2.392,0,0,1,.931,2.9,22.424,22.424,0,0,0-.438,3.3c1.363-.7,2.328-1.124,3.214-1.674a1.959,1.959,0,0,1,2.379-.016c.9.588,1.91,1,3.281,1.7A23.842,23.842,0,0,0,2620.661,7329.92Zm-62.279,47.841a28.79,28.79,0,0,0,2.771,1.415,2.3,2.3,0,0,1,1.593,2.3,26.426,26.426,0,0,0,.464,2.919l.472.178a28.3,28.3,0,0,0,2.162-2.232,2.325,2.325,0,0,1,2.565-.809,26.586,26.586,0,0,0,3.071.216,16.7,16.7,0,0,0-1.193-2.861,2.212,2.212,0,0,1,.045-2.653c.523-.867.9-1.82,1.524-3.108a31.551,31.551,0,0,0-3.727.561,1.843,1.843,0,0,1-2.126-.727c-.718-.823-1.529-1.565-2.644-2.688-.263,1.529-.528,2.584-.605,3.652a2.029,2.029,0,0,1-1.4,1.966c-1.011.4-1.973.931-2.957,1.4Z" transform="translate(-32.715 -31.418)" fill="#ffd112"/>
    <path id="Path_527" data-name="Path 527" d="M2523.04,7374.342c.872-5.912-1.1-10.852-4.917-15.309a34.622,34.622,0,0,1-4.071-6.193,14.689,14.689,0,0,1,.421-15.136,48.877,48.877,0,0,1,4.457-6.468,17.659,17.659,0,0,0,4.169-12.522,53.964,53.964,0,0,1,.43-9.729c.76-5.387,3.992-9.086,8.919-11.213a56.306,56.306,0,0,1,7.814-2.735,16.726,16.726,0,0,0,10.172-7.475,65.154,65.154,0,0,1,4.392-5.99c4.525-5.549,10.315-7.113,17.114-5.165a61.258,61.258,0,0,1,6.081,1.984,17.3,17.3,0,0,0,13.175-.011,54.953,54.953,0,0,1,8.5-2.45c5.652-1.159,10.36.778,14.071,5.061a55.426,55.426,0,0,1,4.873,6.534,17.212,17.212,0,0,0,10.282,7.566,54.256,54.256,0,0,1,9.218,3.5c4.717,2.342,7.156,6.464,7.659,11.636a58.456,58.456,0,0,1,.223,8.586,17.259,17.259,0,0,0,4.047,12.263,52.533,52.533,0,0,1,4.624,6.708,14.954,14.954,0,0,1-.135,16.042,49.73,49.73,0,0,1-4.4,6.333,17.448,17.448,0,0,0-4.117,12.533,57.8,57.8,0,0,1-.214,8.293,14.4,14.4,0,0,1-9.2,12.615,49.658,49.658,0,0,1-7.264,2.547,17.21,17.21,0,0,0-10.873,7.919,51.378,51.378,0,0,1-4.325,5.855c-4.495,5.4-10.212,6.936-16.9,5.043-2.1-.593-4.19-1.241-6.215-2.04a17.41,17.41,0,0,0-13.043-.007,57.187,57.187,0,0,1-8.645,2.5c-5.54,1.135-10.174-.789-13.862-4.917a46.351,46.351,0,0,1-4.821-6.388,17.253,17.253,0,0,0-10.845-7.957,56.759,56.759,0,0,1-6.207-2.062c-6.963-2.668-10.319-7.89-10.585-15.226C2522.993,7377.358,2523.04,7375.849,2523.04,7374.342Zm4.524-1.146h.118c0,1.653-.05,3.308.009,4.959.232,6.521,2.587,9.756,8.728,11.955,2.327.833,4.677,1.612,7.044,2.321a16.969,16.969,0,0,1,9.543,7c.865,1.292,1.725,2.595,2.692,3.808a51.84,51.84,0,0,0,4.532,5.3,8.45,8.45,0,0,0,8.075,2.276,72.725,72.725,0,0,0,8.647-2.5,20.055,20.055,0,0,1,15.175.025c1.927.783,3.958,1.306,5.936,1.969,5.5,1.844,9.918.315,13.329-4.292,1.532-2.069,3.065-4.141,4.5-6.279a17.964,17.964,0,0,1,10.122-7.4,87.126,87.126,0,0,0,9.034-3.22c3.949-1.68,5.912-4.894,6.157-9.134a53.244,53.244,0,0,0,.135-6.7,20.877,20.877,0,0,1,5.015-15.795,45.193,45.193,0,0,0,3.995-5.734c2.416-3.882,2.6-7.906.167-11.83-1.637-2.635-3.448-5.173-5.323-7.646a17.275,17.275,0,0,1-3.791-11.358c.087-2.477.077-4.959.047-7.438-.08-6.592-2.52-10.029-8.719-12.269-2.1-.757-4.2-1.523-6.352-2.1a18.351,18.351,0,0,1-10.948-8.137,65.826,65.826,0,0,0-5.259-6.976,9.745,9.745,0,0,0-10.636-3.28c-2.566.716-5.138,1.45-7.63,2.381a19.628,19.628,0,0,1-14.352.1c-2.082-.792-4.212-1.478-6.354-2.092-6.234-1.787-9.8-.605-13.749,4.552-1.446,1.89-2.823,3.837-4.141,5.818a18,18,0,0,1-10.206,7.527,89.4,89.4,0,0,0-8.9,3.165,9.7,9.7,0,0,0-6.271,9.04c-.187,3.735-.183,7.479-.271,11.218a13.648,13.648,0,0,1-2.279,7.562c-1.837,2.686-3.777,5.3-5.625,7.979-3.842,5.565-3.8,10.056.127,15.57,1.381,1.939,2.81,3.844,4.212,5.768,1.735,2.382,3.209,4.909,3.438,7.912C2527.686,7369.2,2527.563,7371.2,2527.563,7373.2Zm17.931-27.621a39.06,39.06,0,1,1,38.232,39.157C2562.768,7384.529,2545.29,7366.628,2545.494,7345.575Zm39.019,34.432a34.335,34.335,0,1,0-34.3-34.366A34.381,34.381,0,0,0,2584.513,7380.006Zm18.781,12.652-4.893-6.354-3.49,1.325,5.084,14.1,3.119-1.19-2.723-7.89c1.722,1.934,3.207,3.977,4.761,5.965a1.6,1.6,0,0,0,1.238.612,22.21,22.21,0,0,0,2.9-1.056l-5.078-14-3.121,1.214,2.474,7.1Zm-36.808,8.125c1.171-4.915,2.292-9.623,3.453-14.5,1.806.447,3.541.823,5.242,1.314,1.4.4,2.716,1.03,2.712,2.788,0,2.043-.539,3.927-2.6,4.445a3.027,3.027,0,0,1,.85,3.544c-.416,1.427-.634,2.912-.946,4.4a1.274,1.274,0,0,1-.381.026c-3.129-.634-3.2-.75-2.385-3.874.146-.563.316-1.123.428-1.691.251-1.265.073-1.481-1.5-1.774-.489,1.942-.981,3.9-1.528,6.064Zm6.26-11.3c-.3,1.294-.537,2.3-.848,3.634.839-.175,1.722-.118,1.9-.448a4.253,4.253,0,0,0,.424-2.329C2574.2,7390.048,2573.364,7389.826,2572.745,7389.486Zm-28.045-18.611c2.119-1.262,2.585-2.882,1.511-5.2-1.141-2.462-3.141-3.662-5.2-2.716a81.942,81.942,0,0,0-8.185,4.418,2.727,2.727,0,0,0-1.064,3.918,11.269,11.269,0,0,0,1.756,1.9c-.39,1.306.711,2.033,1.181,3.063l7.2-3.894-2.16-4-2.365,1.289.361,1.132c-.437.243-.78.42-1.109.619-.663.4-1.385.766-1.868-.136-.472-.881.22-1.316.895-1.679q2.5-1.343,5-2.683a4.8,4.8,0,0,1,1.555-.748c.466-.047.975.327,1.465.514a5.208,5.208,0,0,1-.617,1.3,5.366,5.366,0,0,1-1.247.808c.522.975.992,1.855,1.5,2.8C2543.849,7371.312,2544.29,7371.12,2544.7,7370.875Zm-2.962,9.093a3.946,3.946,0,0,0,.1,5.531c1.817,2,4.028,2.5,5.776.954,2.9-2.56,5.618-5.322,8.323-7.914l-2.423-2.463c-.111.094-.266.209-.4.342-2.478,2.4-4.934,4.816-7.456,7.167a1.57,1.57,0,0,1-1.446.251c-.714-.439-.4-1.069.111-1.568.311-.307.635-.6.93-.924,2.195-2.393,4.383-4.791,6.628-7.246l-2.126-1.966C2547.07,7374.743,2544.344,7377.3,2541.739,7379.968Zm46.832,20.85h-2.239c-.126.834-.246,1.631-.391,2.6l-3.383.257c.676-5.119,1.326-10.045,1.985-15.04l4.566-.318c1.212,4.93,2.41,9.8,3.61,14.675C2589.289,7403.578,2589.289,7403.578,2588.571,7400.818Zm-1.408-8.846-.239-.027c-.127,2.011-.253,4.023-.388,6.162l1.611-.213C2587.809,7395.857,2587.486,7393.916,2587.163,7391.973Zm-26.49-10.388,3.955,2.3-5,14.323-3.121-1.771.967-2.5-1.967-1.134-1.726,2.038-2.97-1.668Zm-2.077,9.8c.784-1.807,1.476-3.4,2.168-5l-.342-.187-3.259,4.314Zm64.339-19.651-2.214-1.857-4.912,5.861,11.467,9.649,5.064-6.051-2.19-1.837-2.836,3.286-2.476-2.049,2.286-2.873-2.2-1.808-2.365,2.763-2.277-1.851Zm-.17-5.031,13.529,6.184c1.117-2.408,2.186-4.708,3.292-7.092l-2.583-1.175-1.9,3.915-2.924-1.351,1.495-3.352-2.569-1.1-1.642,3.237-2.559-1.208,1.7-3.814-2.6-1.177C2624.887,7362.158,2623.85,7364.376,2622.765,7366.7Zm-7.738,13.594-1.685-2.28-6.395,4.606,1.683,2.265,1.851-1.154,6.989,9.723,2.793-2.02-6.939-9.719Zm-56.972-34.408h3.135v-8.527l.233-.017,1.4,8.6h2.153c.529-2.977,1.05-5.91,1.57-8.843l.289.02v8.87h3.027v-13.985c-1.355,0-2.611.042-3.863-.014-.854-.039-1.2.253-1.288,1.128-.152,1.536-.436,3.059-.665,4.587l-.3,0c-.291-1.846-.582-3.692-.884-5.611h-4.81Zm24.063.092h3.062V7338.5a44.435,44.435,0,0,1,2.242,6.473,1.265,1.265,0,0,0,1.531,1.122c.714-.056,1.435-.011,2.2-.011V7332.1h-3.006v6.842a21.3,21.3,0,0,1-1.72-4.281c-.9-2.841-.892-2.844-3.88-2.623a2.584,2.584,0,0,0-.427.143Zm-11.832,10.8c1.83,1.026,2.161,2.8,1.529,5.432-.414,1.72-1.645,2.417-3.822,2.439-1.361.014-2.723,0-4.084-.014-.143,0-.286-.033-.545-.065v-14.743c1.9,0,3.8-.151,5.656.037,2.612.264,3.743,4,1.969,6.235A8.1,8.1,0,0,1,2570.286,7356.775Zm-3.454,1.474v3.788c1.8.357,1.751-.788,1.745-1.894C2568.572,7359.011,2568.495,7357.942,2566.832,7358.249Zm-.035-5.807v3.126c1.28.247,1.707-.383,1.737-1.475C2568.565,7352.973,2568.266,7352.175,2566.8,7352.441Zm32.342,9.622c.063-.8.241-1.586.369-2.378l.433.044c.222.739.45,1.478.667,2.218.9,3.062.9,3.063,4.024,2.729a1.618,1.618,0,0,0,.372-.185c-.749-2.274-1.462-4.583-2.277-6.855a3.58,3.58,0,0,1,.162-3.181c.8-1.46,1.414-3.019,2.173-4.675a14.312,14.312,0,0,1-2-.015c-1.293-.207-1.925.314-2.271,1.565a37.247,37.247,0,0,1-1.414,3.668l-.323-.078V7349.9h-3.265v14.739h3.336C2599.125,7363.7,2599.075,7362.874,2599.139,7362.063Zm-15.566,2.577h-3.546l-.461-2.494h-2.23l-.494,2.487h-3.379c.911-4.941,1.81-9.819,2.723-14.773h4.629Zm-4.935-10.916-.312-.02q-.364,2.79-.727,5.571h1.672C2579.049,7357.335,2578.843,7355.53,2578.637,7353.725Zm11.7,7.528c-.086.4-.633.7-.971,1.05-.3-.328-.863-.649-.872-.985q-.11-4.078,0-8.162a1.245,1.245,0,0,1,.929-.81,1.342,1.342,0,0,1,.916.853,8.767,8.767,0,0,1,.128,1.943h3.29c.029-.4.068-.689.068-.977,0-3.006-1.638-4.693-4.539-4.674-2.785.019-4.4,1.723-4.394,4.672,0,2.091.005,4.183.042,6.273a4.553,4.553,0,0,0,1.843,3.787,4.36,4.36,0,0,0,5.053.166c1.754-1.161,2.4-3.108,1.817-5.559h-3.261A12.118,12.118,0,0,1,2590.34,7361.252Zm-10.16-22.24c0,1.213.033,2.427-.007,3.638a3.662,3.662,0,0,1-3.475,3.611c-2.587.182-4.517-.928-4.671-3.051a59.816,59.816,0,0,1-.01-8.275c.141-2.112,2.071-3.313,4.483-3.146a3.74,3.74,0,0,1,3.686,3.731c.022,1.164,0,2.328,0,3.492Zm-4.993-.051c0,1.209-.068,2.425.039,3.625.035.4.523.75.8,1.125.317-.346.9-.684.908-1.041q.123-3.624,0-7.254c-.012-.367-.59-.714-.906-1.071-.282.378-.77.736-.808,1.137C2575.114,7336.632,2575.186,7337.8,2575.187,7338.961Zm18.19,6.945h7.153v-2.567h-3.939v-3.193h3.3v-2.686h-3.3v-2.653h3.767v-2.726h-6.983Zm12.8-9.875c-.217-1.137-.1-2.566-.751-3.322-.6-.691-2.04-.653-3.456-1.028,1.394,5,3.532,9.35,2.634,14.2h3.438c-1.046-4.941,1.138-9.246,2.4-13.732-3.164-.359-3.161-.359-3.729,2.455-.1.47-.226.934-.341,1.4Z" fill="#0c4b9b"/>
  </g>
</svg>
