<svg xmlns="http://www.w3.org/2000/svg" width="109.25" height="109.268" viewBox="0 0 109.25 109.268">
  <g id="Group_632" data-name="Group 632" transform="translate(-2556.045 -7879.977)">
    <path id="Path_530" data-name="Path 530" d="M2610.864,7950.718a26.537,26.537,0,0,1-13.64-3.521c-11.263-6.41-22.532-12.809-33.752-19.292-9.963-5.758-9.88-19.352.12-25.1,11.107-6.378,22.181-12.819,33.375-19.042,8.927-4.963,18.139-5.088,27.1-.16,11.44,6.293,22.742,12.842,34.035,19.4a14.262,14.262,0,0,1-.027,24.8c-11.337,6.58-22.739,13.051-34.145,19.512A25.753,25.753,0,0,1,2610.864,7950.718Zm-.315-6.565a20.832,20.832,0,0,0,11.012-2.95q16.407-9.406,32.838-18.773a7.893,7.893,0,0,0,.018-14.08c-11.085-6.318-22.128-12.709-33.248-18.963a20.29,20.29,0,0,0-21.027.023c-11.074,6.235-22.085,12.581-33.111,18.9-5.968,3.421-5.984,10.724-.033,14.135q16.537,9.48,33.1,18.92A20.174,20.174,0,0,0,2610.548,7944.153Z" fill="#ffd112"/>
    <path id="Path_531" data-name="Path 531" d="M2611.345,8108.531a27.584,27.584,0,0,1-14.128-3.551q-16.9-9.618-33.771-19.28a14.343,14.343,0,0,1-7.341-11.41,6.526,6.526,0,0,1-.03-.9,3.245,3.245,0,0,1,3.1-3.393,3.167,3.167,0,0,1,3.43,3.2c.111,3.347,1.771,5.582,4.611,7.192,10.883,6.172,21.722,12.422,32.607,18.591,7.21,4.085,14.5,4.1,21.712.017,10.628-6.014,21.185-12.155,31.841-18.118,3.227-1.805,5.321-4.093,5.489-7.948a2.972,2.972,0,0,1,2.881-2.929,3.1,3.1,0,0,1,3.354,2.194,7.609,7.609,0,0,1,.08,2.83,13.725,13.725,0,0,1-6.724,10.339q-17.484,10.1-35.069,20.033A24.4,24.4,0,0,1,2611.345,8108.531Zm11.978-22.366c11.772-6.633,23.526-13.3,35.188-20.125,4.519-2.643,6.721-6.882,6.729-12.158a3.1,3.1,0,0,0-3.426-3.146c-1.718.092-2.875,1.245-3.006,3.31a8.385,8.385,0,0,1-4.733,7.144c-10.93,6.192-21.792,12.5-32.742,18.659a20.588,20.588,0,0,1-21.322-.024c-10.905-6.132-21.726-12.415-32.612-18.58-2.93-1.659-4.708-3.905-4.807-7.392a3.135,3.135,0,0,0-3.35-3.117,3.237,3.237,0,0,0-3.167,3.325,6.839,6.839,0,0,0,.041,1.051,14.366,14.366,0,0,0,7.4,11.374q16.879,9.65,33.775,19.273a26.966,26.966,0,0,0,13.73,3.509A24.617,24.617,0,0,0,2623.323,8086.165Z" transform="translate(-0.019 -119.287)" fill="#0c4b9b"/>
  </g>
</svg>
