<svg xmlns="http://www.w3.org/2000/svg" width="118.166" height="136.294" viewBox="0 0 118.166 136.294">
  <g id="Group_628" data-name="Group 628" transform="translate(-3015.864 -7082.035)">
    <path id="Path_522" data-name="Path 522" d="M3020.829,7144.26c-.157-10.453-.562-20.864-2.787-31.115-.488-2.248-1.216-4.448-1.908-6.647-.773-2.457.115-4.134,2.627-4.246,19.729-.881,36.736-9.309,53.192-19.2,2.168-1.3,3.717-1.4,5.932-.036,12.616,7.759,25.873,14.144,40.439,17.335a99,99,0,0,0,12.133,1.577c2.988.274,3.971,1.34,3.431,4.372-.924,5.185-2.226,10.336-2.7,15.563-.758,8.3-1.21,16.653-1.333,24.99-.094,6.386.627,12.78.787,19.176.169,6.779-2.379,12.723-6.181,18.188-4.8,6.9-10.993,12.4-17.732,17.306A144.688,144.688,0,0,1,3078,7217.7a6.608,6.608,0,0,1-5.592.014c-13.9-5.9-26.828-13.341-37.958-23.65-5.661-5.244-10.431-11.169-13.077-18.56a28.408,28.408,0,0,1-1.482-11.362C3020.27,7157.52,3020.523,7150.889,3020.829,7144.26Zm1.844-36.01c.05.235.2.854.311,1.482.818,4.841,1.912,9.654,2.382,14.529a250.562,250.562,0,0,1,.2,40.139,25.7,25.7,0,0,0,.58,7.382c1.693,7.262,6.206,12.842,11.468,17.825,10.15,9.612,22.108,16.4,34.787,22.072a6.287,6.287,0,0,0,5.679-.058,143.545,143.545,0,0,0,26.148-15c6.29-4.618,12.1-9.756,16.347-16.407,2.826-4.423,4.636-9.166,4.44-14.542-.317-8.7-.808-17.412-.758-26.116a178.255,178.255,0,0,1,1.353-18.59c.493-4.447,1.513-8.837,2.318-13.369-.621-.118-1.068-.213-1.518-.287-3.444-.563-6.934-.927-10.325-1.719-14.028-3.278-26.912-9.325-39.244-16.624a3.2,3.2,0,0,0-3.823.046c-10.112,6.113-20.651,11.387-31.992,14.791C3035.043,7105.6,3028.877,7106.769,3022.673,7108.25Z" transform="translate(0 0)" fill="#0c4b9b"/>
    <path id="Path_523" data-name="Path 523" d="M3145.6,7189.82c1.245,0,2.191-.076,3.121.014,3.933.382,7.663,4.362,7.682,8.328q.069,14.312,0,28.625a8.859,8.859,0,0,1-8.5,8.428q-22.757.066-45.515,0a8.84,8.84,0,0,1-8.466-8.635c-.031-9.187-.015-18.372-.008-27.559a8.888,8.888,0,0,1,9.145-9.22c.463-.007.927,0,1.64,0-.508-7.938,1.8-14.635,8.118-19.552a19.305,19.305,0,0,1,13.751-4.277,20.349,20.349,0,0,1,14.424,7.811C3144.792,7178.359,3145.983,7183.743,3145.6,7189.82Zm-20.522,39.808v.011q11.106,0,22.213,0c2.808,0,3.531-.745,3.532-3.611q.006-13.415,0-26.833c0-3.1-.681-3.8-3.71-3.8q-21.946-.006-43.893,0c-3.026,0-3.714.707-3.715,3.8q0,13.418,0,26.834c0,2.871.674,3.588,3.533,3.594Q3114.057,7229.646,3125.074,7229.628Zm14.716-39.936c1.219-6.3-1.41-12.729-6.436-15.9a15.969,15.969,0,0,0-17.134.418,15.376,15.376,0,0,0-5.651,15.484Zm-15.312,13.23a8.138,8.138,0,0,1,7.654,5.2,6.8,6.8,0,0,1-2.713,7.806,3,3,0,0,0-1.474,3.057,19.481,19.481,0,0,1-.007,3.02,2.785,2.785,0,0,1-5.562.021,5.271,5.271,0,0,1-.007-.889c.191-2.4,0-4.384-2.336-6.093a5.808,5.808,0,0,1-1.625-7.388C3119.729,7204.812,3121.943,7203.137,3124.478,7202.923Zm.7,9c1.184.092,1.747-.5,1.75-1.66,0-1.117-.461-1.743-1.688-1.76-1.27-.018-1.859.535-1.848,1.781A1.459,1.459,0,0,0,3125.174,7211.927Z" transform="translate(-50.223 -53.978)" fill="#ffd112"/>
  </g>
</svg>
