<svg xmlns="http://www.w3.org/2000/svg" width="115.127" height="123.399" viewBox="0 0 115.127 123.399">
  <g id="Group_631" data-name="Group 631" transform="translate(-3155.787 -7588.807)">
    <path id="Path_528" data-name="Path 528" d="M3364.066,7671.285l3.344,3.021-22.187,24.416-3.333-3.014Zm-7.2,20.355a6.645,6.645,0,1,0,6.646-6.633A6.554,6.554,0,0,0,3356.866,7691.64Zm4.438-.029a2.345,2.345,0,0,1,2.276-2.166,2.2,2.2,0,1,1-2.276,2.166Zm-8.872-13.264a6.642,6.642,0,1,0-6.776,6.656A6.565,6.565,0,0,0,3352.432,7678.347Zm-4.438.008a2.337,2.337,0,0,1-2.234,2.209,2.369,2.369,0,0,1-2.174-2.134,2.315,2.315,0,0,1,2.163-2.276A2.35,2.35,0,0,1,3347.993,7678.355Z" transform="translate(-132.502 -59.601)" fill="#ffd112"/>
    <path id="Path_529" data-name="Path 529" d="M3182.485,7699.611c-.787,1.977-1.18,2.223-3.325,2.221-7.747,0-15.494,0-23.354,0v-4.406h13.11v-30.979h-13.129v-4.5h8.85l14.668.009c2.028,0,2.423.274,3.165,2.215,7.03,0,14.084.025,21.139-.023a3.865,3.865,0,0,1,3.044,1.253c3.645,3.726,7.365,7.378,11.028,11.086a1.928,1.928,0,0,0,1.946.6q16.372-2.895,32.758-5.709c3.308-.574,6.615-1.158,9.926-1.719a7.253,7.253,0,0,1,5.009,13.382c-3.988,2.395-8.024,4.706-12.042,7.051q-17.84,10.408-35.672,20.83a7.862,7.862,0,0,1-8.116.306c-6.852-3.485-13.763-6.854-20.6-10.358a9.575,9.575,0,0,0-5.393-1.27C3184.487,7699.688,3183.468,7699.611,3182.485,7699.611Zm21.284-19.283c.377.356.682.631.973.921q5.143,5.134,10.281,10.274a4.008,4.008,0,0,0,3.732,1.35,3.9,3.9,0,0,0,3.192-2.9,3.95,3.95,0,0,0-1.242-4.13q-8.262-8.279-16.562-16.521a2.8,2.8,0,0,0-1.792-.686c-6.183-.053-12.366-.036-18.549-.039h-1.457v26.577c1.715,0,3.367.069,5.01-.021a8.09,8.09,0,0,1,4.212,1.022c7.229,3.663,14.5,7.239,21.726,10.91a4,4,0,0,0,4.262-.183c9.287-5.473,18.612-10.882,27.923-16.312q9.551-5.571,19.1-11.145c1.947-1.139,2.413-3,1.153-4.477-1-1.173-2.31-.974-3.592-.752q-13.4,2.309-26.789,4.648c-4.239.739-8.474,1.5-13.122,2.328.747.667,1.281,1.094,1.758,1.577a8.508,8.508,0,1,1-12.022,12.036c-3.346-3.311-6.65-6.662-10-9.965a8.357,8.357,0,0,0-1.546-.989Zm-26.015,17V7666.5H3173.5v30.835Zm44.391-100.621a26.33,26.33,0,0,1,9.963-6.461,25.379,25.379,0,0,1,32,14.622c4.549,11.091,2.94,21.544-5.254,30.43-11.354,12.311-23.007,24.345-34.537,36.492-1.672,1.763-2.691,1.744-4.379-.035q-17.151-18.072-34.3-36.146c-11.566-12.207-10.089-31.83,3.128-41.771a25.133,25.133,0,0,1,32.248,1.794C3221.35,7595.952,3221.683,7596.27,3222.145,7596.71Zm.179,71a6.757,6.757,0,0,1,.65-1.018q16.178-17.087,32.372-34.158a23.653,23.653,0,0,0,3.906-27.519,20.832,20.832,0,0,0-32.071-6.811c-1.171.961-2.176,2.125-3.267,3.185a2.309,2.309,0,0,1-3.526.013c-.729-.706-1.394-1.478-2.13-2.176a19.954,19.954,0,0,0-15.439-5.869c-8.529.552-14.615,5.035-18.236,12.654a23.327,23.327,0,0,0,4.273,26.411c9.668,10.288,19.416,20.5,29.131,30.743C3219.345,7664.6,3220.712,7666.019,3222.324,7667.708Zm-11.173-25.624v4.272h4.3v-4.272Zm8.872.013v4.249h4.272V7642.1Zm8.852-.01v4.267h4.289v-4.267Z" transform="translate(0 0)" fill="#0c4b9b"/>
  </g>
</svg>
