
<!-- width="866.923" height="814.713" -->
<svg xmlns="http://www.w3.org/2000/svg" xmlns:xlink="http://www.w3.org/1999/xlink" width="866.923" height="814.713" viewBox="0 0 866.923 814.713">
  <defs>
    <filter id="Rectangle_347" x="0" y="237.287" width="866.923" height="577.426" filterUnits="userSpaceOnUse">
      <feOffset dy="20" input="SourceAlpha"/>
      <feGaussianBlur stdDeviation="30" result="blur"/>
      <feFlood flood-color="#5967e3" flood-opacity="0.302"/>
      <feComposite operator="in" in2="blur"/>
      <feComposite in="SourceGraphic"/>
    </filter>
    <filter id="Rectangle_350" x="232.923" y="180" width="273" height="273" filterUnits="userSpaceOnUse">
      <feOffset dy="20" input="SourceAlpha"/>
      <feGaussianBlur stdDeviation="30" result="blur-2"/>
      <feFlood flood-color="#5967e3" flood-opacity="0.302"/>
      <feComposite operator="in" in2="blur-2"/>
      <feComposite in="SourceGraphic"/>
    </filter>
    <filter id="Rectangle_351" x="438.923" y="65" width="273" height="273" filterUnits="userSpaceOnUse">
      <feOffset dy="20" input="SourceAlpha"/>
      <feGaussianBlur stdDeviation="30" result="blur-3"/>
      <feFlood flood-color="#5967e3" flood-opacity="0.302"/>
      <feComposite operator="in" in2="blur-3"/>
      <feComposite in="SourceGraphic"/>
    </filter>
    <filter id="Rectangle_352" x="55.923" y="0" width="273" height="273" filterUnits="userSpaceOnUse">
      <feOffset dy="20" input="SourceAlpha"/>
      <feGaussianBlur stdDeviation="30" result="blur-4"/>
      <feFlood flood-color="#5967e3" flood-opacity="0.302"/>
      <feComposite operator="in" in2="blur-4"/>
      <feComposite in="SourceGraphic"/>
    </filter>
  </defs>
  <g id="Group_737" data-name="Group 737" transform="translate(-134.077 -123)">
    <g id="Group_670" data-name="Group 670" transform="translate(861.688 516.954)">
      <g transform="matrix(1, 0, 0, 1, -727.61, -393.95)" filter="url(#Rectangle_347)">
        <rect id="Rectangle_347-2" data-name="Rectangle 347" width="686.923" height="397.426" rx="19.991" transform="translate(90 307.29)" fill="#fff"/>
      </g>
      <path id="Path_617" data-name="Path 617" d="M4.209,282.327H-369.4a22.654,22.654,0,0,1-22.654-22.654V-10.921A22.653,22.653,0,0,1-369.4-33.575H4.209A22.653,22.653,0,0,1,26.863-10.921V259.673A22.654,22.654,0,0,1,4.209,282.327ZM-405.7,259.673V-10.921a22.653,22.653,0,0,0-22.654-22.654h-164.15a22.654,22.654,0,0,0-22.654,22.654V259.673a22.655,22.655,0,0,0,22.654,22.654h164.15A22.654,22.654,0,0,0-405.7,259.673Z" fill="#bdd0fb"/>
      <rect id="Rectangle_348" data-name="Rectangle 348" width="111.339" height="35.95" rx="17.975" transform="translate(-92.302 213.611)" fill="#3e9924"/>
      <rect id="Rectangle_349" data-name="Rectangle 349" width="111.339" height="35.95" rx="17.975" transform="translate(-214.714 213.611)" fill="#e12f2b"/>
      <path id="Path_618" data-name="Path 618" d="M-44,10.19h0a4.25,4.25,0,0,1,4.25-4.25H14.787a4.25,4.25,0,0,1,4.25,4.25h0a4.25,4.25,0,0,1-4.25,4.25H-39.751A4.25,4.25,0,0,1-44,10.19Zm4.25,47.862H14.787a4.249,4.249,0,0,0,4.25-4.249h0a4.25,4.25,0,0,0-4.25-4.25H-39.751A4.25,4.25,0,0,0-44,53.8h0A4.249,4.249,0,0,0-39.751,58.052ZM-537.7,105.915h54.538a4.25,4.25,0,0,0,4.25-4.25h0a4.25,4.25,0,0,0-4.25-4.25H-537.7a4.249,4.249,0,0,0-4.249,4.25h0A4.249,4.249,0,0,0-537.7,105.915Zm-31.963,42.009H-451.2a4.249,4.249,0,0,0,4.249-4.25h0a4.249,4.249,0,0,0-4.249-4.25H-569.666a4.25,4.25,0,0,0-4.25,4.25h0A4.25,4.25,0,0,0-569.666,147.924Zm0,20.592H-451.2a4.249,4.249,0,0,0,4.249-4.25h0a4.249,4.249,0,0,0-4.249-4.25H-569.666a4.25,4.25,0,0,0-4.25,4.25h0A4.25,4.25,0,0,0-569.666,168.516Zm0,20.592H-451.2a4.249,4.249,0,0,0,4.249-4.25h0a4.249,4.249,0,0,0-4.249-4.249H-569.666a4.249,4.249,0,0,0-4.25,4.249h0A4.25,4.25,0,0,0-569.666,189.108Zm529.915-87.443H14.787a4.25,4.25,0,0,0,4.25-4.25h0a4.25,4.25,0,0,0-4.25-4.25H-39.751A4.25,4.25,0,0,0-44,97.415h0A4.25,4.25,0,0,0-39.751,101.665Zm0,42.009H14.787a4.25,4.25,0,0,0,4.25-4.25h0a4.249,4.249,0,0,0-4.25-4.249H-39.751A4.249,4.249,0,0,0-44,139.424h0A4.25,4.25,0,0,0-39.751,143.674Zm0,43.613H14.787a4.25,4.25,0,0,0,4.25-4.25h0a4.25,4.25,0,0,0-4.25-4.25H-39.751a4.25,4.25,0,0,0-4.25,4.25h0A4.25,4.25,0,0,0-39.751,187.287Zm-249.018,0h54.538a4.25,4.25,0,0,0,4.25-4.25h0a4.25,4.25,0,0,0-4.25-4.25h-54.538a4.249,4.249,0,0,0-4.249,4.25h0A4.249,4.249,0,0,0-288.769,187.287ZM-121.011,27.172h39.63A14.655,14.655,0,0,0-66.726,12.517h0A14.655,14.655,0,0,0-81.381-2.138h-39.63a14.655,14.655,0,0,0-14.655,14.655h0A14.655,14.655,0,0,0-121.011,27.172Zm0,41.286h39.63A14.655,14.655,0,0,0-66.726,53.8h0A14.656,14.656,0,0,0-81.381,39.147h-39.63A14.656,14.656,0,0,0-135.666,53.8h0A14.655,14.655,0,0,0-121.011,68.458Zm0,41.286h39.63A14.656,14.656,0,0,0-66.726,95.088h0A14.655,14.655,0,0,0-81.381,80.433h-39.63a14.655,14.655,0,0,0-14.655,14.655h0A14.656,14.656,0,0,0-121.011,109.744Zm-79.048,0h39.63a14.656,14.656,0,0,0,14.655-14.656h0a14.655,14.655,0,0,0-14.655-14.655h-39.63a14.655,14.655,0,0,0-14.655,14.655h0A14.656,14.656,0,0,0-200.059,109.744Zm0,44.336h39.63a14.656,14.656,0,0,0,14.655-14.656h0a14.655,14.655,0,0,0-14.655-14.655h-39.63a14.655,14.655,0,0,0-14.655,14.655h0A14.656,14.656,0,0,0-200.059,154.08Zm0,44.336H-81.381A14.656,14.656,0,0,0-66.726,183.76h0A14.655,14.655,0,0,0-81.381,169.1H-200.059a14.655,14.655,0,0,0-14.655,14.655h0A14.656,14.656,0,0,0-200.059,198.416Zm0-171.244h39.63a14.655,14.655,0,0,0,14.655-14.655h0A14.655,14.655,0,0,0-160.429-2.138h-39.63a14.655,14.655,0,0,0-14.655,14.655h0A14.655,14.655,0,0,0-200.059,27.172Zm-81.255,0h39.629a14.656,14.656,0,0,0,14.656-14.655h0A14.656,14.656,0,0,0-241.685-2.138h-39.629A14.656,14.656,0,0,0-295.97,12.517h0A14.656,14.656,0,0,0-281.314,27.172Zm-76.71,0h39.63a14.655,14.655,0,0,0,14.655-14.655h0A14.655,14.655,0,0,0-318.394-2.138h-39.63a14.655,14.655,0,0,0-14.655,14.655h0A14.655,14.655,0,0,0-358.024,27.172Zm-152.41-14.655a32.81,32.81,0,0,0-32.81,32.81,32.811,32.811,0,0,0,32.81,32.81,32.81,32.81,0,0,0,32.81-32.81A32.809,32.809,0,0,0-510.434,12.517Z" fill="#eef7ff"/>
      <path id="Path_622" data-name="Path 622" d="M-17.037-6h-1.846V-17.761a7.167,7.167,0,0,1-.764.636,10.84,10.84,0,0,1-.99.636,12.219,12.219,0,0,1-1.938.954V-17.32a11.1,11.1,0,0,0,1.451-.8,10.624,10.624,0,0,0,1.256-.964,6.937,6.937,0,0,0,1.641-2.01h1.189ZM-2.425-1.774V0h-9.936a3.265,3.265,0,0,1,.215-1.282,6.953,6.953,0,0,1,1.21-2q.431-.492,1.025-1.061t1.395-1.215q1.23-1.015,2.056-1.8A11.2,11.2,0,0,0-5.2-8.736a3.834,3.834,0,0,0,.861-2.225,2.464,2.464,0,0,0-.79-1.846,2.823,2.823,0,0,0-2.041-.759,2.883,2.883,0,0,0-2.133.8,3.06,3.06,0,0,0-.81,2.215l-1.9-.195a5.635,5.635,0,0,1,.467-1.871,4.045,4.045,0,0,1,.995-1.364,4.159,4.159,0,0,1,1.482-.831,6.212,6.212,0,0,1,1.938-.282,4.765,4.765,0,0,1,3.425,1.2A3.939,3.939,0,0,1-2.446-10.92a4.51,4.51,0,0,1-.369,1.774,6.833,6.833,0,0,1-1.23,1.835A15.968,15.968,0,0,1-5.183-6.163q-.708.656-1.7,1.5-.831.708-1.364,1.174t-.769.723a5.4,5.4,0,0,0-.779.995ZM4.522-1V-4.6H-2V-6.291l6.86-9.741H6.367v9.741H8.4V-4.6H6.367V-1Zm0-5.291v-6.778L-.185-6.291ZM18.739-8.208a3.547,3.547,0,0,0-.7-1.579,2.464,2.464,0,0,0-1.846-.79,2.508,2.508,0,0,0-1.548.492,3.511,3.511,0,0,0-.779.779,5.186,5.186,0,0,0-.595,1.077,9.4,9.4,0,0,0-.523,3.476,4.3,4.3,0,0,1,1.635-1.512A4.391,4.391,0,0,1,16.4-6.751a4.161,4.161,0,0,1,3.138,1.364,4.826,4.826,0,0,1,1.3,3.507A5.73,5.73,0,0,1,20.226.754,4.41,4.41,0,0,1,18.554,2.61a4.578,4.578,0,0,1-2.42.646,4.735,4.735,0,0,1-3.763-1.692q-1.456-1.7-1.456-5.6,0-4.358,1.61-6.337a4.61,4.61,0,0,1,3.784-1.723,4.2,4.2,0,0,1,2.9.995,4.212,4.212,0,0,1,1.364,2.748Zm-5.7,6.337a4.328,4.328,0,0,0,.4,1.825,3.084,3.084,0,0,0,1.138,1.333,2.857,2.857,0,0,0,1.528.451A2.624,2.624,0,0,0,18.114.8a3.69,3.69,0,0,0,.841-2.563,3.456,3.456,0,0,0-.831-2.451,2.722,2.722,0,0,0-2.092-.9,2.84,2.84,0,0,0-2.123.9A3.2,3.2,0,0,0,13.038-1.871Z" transform="translate(-96.688 148.046)" fill="#0c4b9b"/>
      <text id="pay" transform="translate(-36.633 233.97)" fill="#fff" font-size="12.424" font-family="GeezaPro, Geeza Pro"><tspan x="-15.954" y="0">Pay</tspan></text>
      <text id="cancel" transform="translate(-159.045 233.185)" fill="#fff" font-size="8.437" font-family="GeezaPro, Geeza Pro"><tspan x="-12.266" y="0">Cancel</tspan></text>
      <path id="Path_619" data-name="Path 619" d="M-593.4-61.255a8.311,8.311,0,0,1-8.312,8.312,8.312,8.312,0,0,1-8.313-8.312,8.313,8.313,0,0,1,8.313-8.313A8.312,8.312,0,0,1-593.4-61.255Z" fill="#e4474f"/>
      <path id="Path_620" data-name="Path 620" d="M-567.678-61.255a8.311,8.311,0,0,1-8.312,8.312,8.312,8.312,0,0,1-8.313-8.312,8.313,8.313,0,0,1,8.313-8.313A8.312,8.312,0,0,1-567.678-61.255Z" fill="#fea629"/>
      <path id="Path_621" data-name="Path 621" d="M-541.952-61.255a8.312,8.312,0,0,1-8.313,8.312,8.312,8.312,0,0,1-8.313-8.312,8.313,8.313,0,0,1,8.313-8.313A8.313,8.313,0,0,1-541.952-61.255Z" fill="#008f2a"/>
    </g>
    <g id="Group_707" data-name="Group 707">
      <g transform="matrix(1, 0, 0, 1, 134.08, 123)" filter="url(#Rectangle_350)">
        <rect id="Rectangle_350-2" data-name="Rectangle 350" width="93" height="93" rx="21" transform="translate(322.92 250)" fill="#fff"/>
      </g>
      <g id="Group_671" data-name="Group 671" transform="translate(475.206 386.865)">
        <path id="Path_522" data-name="Path 522" d="M3018.241,7111.834a75.187,75.187,0,0,0-1.334-14.9c-.234-1.077-.583-2.13-.914-3.184-.37-1.177.055-1.98,1.258-2.034,9.448-.422,17.592-4.458,25.473-9.192a2.345,2.345,0,0,1,2.841-.018,62.642,62.642,0,0,0,19.366,8.3,47.372,47.372,0,0,0,5.81.756c1.431.132,1.9.642,1.643,2.094-.442,2.483-1.066,4.949-1.295,7.453-.363,3.976-.58,7.975-.639,11.967-.045,3.058.3,6.12.377,9.183a14.452,14.452,0,0,1-2.96,8.71,35.514,35.514,0,0,1-8.492,8.288,69.346,69.346,0,0,1-13.757,7.747,3.163,3.163,0,0,1-2.678.007,61.779,61.779,0,0,1-18.177-11.326,22.559,22.559,0,0,1-6.262-8.888,13.6,13.6,0,0,1-.71-5.44C3017.974,7118.184,3018.095,7115.009,3018.241,7111.834Zm.883-17.244c.024.112.1.408.149.709.391,2.318.916,4.623,1.141,6.958a119.956,119.956,0,0,1,.094,19.222,12.315,12.315,0,0,0,.278,3.535c.811,3.478,2.972,6.15,5.492,8.536a58.251,58.251,0,0,0,16.659,10.57,3.007,3.007,0,0,0,2.719-.028,68.764,68.764,0,0,0,12.522-7.183,30,30,0,0,0,7.828-7.857,11.933,11.933,0,0,0,2.126-6.964c-.152-4.169-.387-8.339-.363-12.507a85.327,85.327,0,0,1,.648-8.9c.237-2.13.725-4.232,1.11-6.4-.3-.057-.511-.1-.727-.138-1.649-.27-3.321-.444-4.945-.823a66.83,66.83,0,0,1-18.794-7.961,1.531,1.531,0,0,0-1.83.022,66.907,66.907,0,0,1-15.321,7.083C3025.049,7093.319,3022.1,7093.88,3019.125,7094.59Z" transform="translate(-3015.864 -7082.035)" fill="#0c4b9b"/>
        <path id="Path_523" data-name="Path 523" d="M3118.656,7177.358c.6,0,1.05-.037,1.494.006a4.338,4.338,0,0,1,3.679,3.988q.033,6.854,0,13.708a4.242,4.242,0,0,1-4.069,4.036q-10.9.031-21.8,0a4.233,4.233,0,0,1-4.054-4.135c-.015-4.4-.007-8.8,0-13.2a4.257,4.257,0,0,1,4.379-4.416c.222,0,.444,0,.785,0-.243-3.8.862-7.008,3.887-9.363a9.242,9.242,0,0,1,6.585-2.048,9.742,9.742,0,0,1,6.907,3.74A10.4,10.4,0,0,1,3118.656,7177.358Zm-9.828,19.063v.005q5.319,0,10.638,0c1.345,0,1.691-.357,1.691-1.729q0-6.424,0-12.85c0-1.483-.325-1.818-1.777-1.818q-10.51,0-21.02,0c-1.449,0-1.779.338-1.779,1.821q0,6.426,0,12.85c0,1.375.323,1.718,1.692,1.721Q3103.552,7196.43,3108.828,7196.421Zm7.047-19.125a7.37,7.37,0,0,0-3.082-7.615,7.647,7.647,0,0,0-8.206.2,7.363,7.363,0,0,0-2.706,7.415Zm-7.332,6.336a3.9,3.9,0,0,1,3.665,2.489,3.258,3.258,0,0,1-1.3,3.738,1.434,1.434,0,0,0-.706,1.463,9.348,9.348,0,0,1,0,1.446,1.333,1.333,0,0,1-2.663.01,2.532,2.532,0,0,1,0-.426,2.844,2.844,0,0,0-1.118-2.918,2.78,2.78,0,0,1-.779-3.538A3.6,3.6,0,0,1,3108.543,7183.632Zm.333,4.312c.567.044.837-.241.838-.794,0-.535-.221-.834-.808-.843-.609-.008-.89.256-.885.853A.7.7,0,0,0,3108.876,7187.944Z" transform="translate(-3080.58 -7151.591)" fill="#ffd112"/>
      </g>
    </g>
    <g id="Group_708" data-name="Group 708">
      <g transform="matrix(1, 0, 0, 1, 134.08, 123)" filter="url(#Rectangle_351)">
        <rect id="Rectangle_351-2" data-name="Rectangle 351" width="93" height="93" rx="21" transform="translate(528.92 135)" fill="#fff"/>
      </g>
      <g id="Group_672" data-name="Group 672" transform="translate(677.111 273.155)">
        <path id="Path_526" data-name="Path 526" d="M2606.9,7333.2a8.6,8.6,0,0,1-.643,1.008,1.158,1.158,0,0,0-.17,1.472,9.57,9.57,0,0,1,.486,1.306,5.25,5.25,0,0,1-1.045-.217,1.547,1.547,0,0,0-2.017.426,6.279,6.279,0,0,1-.853.659,11.747,11.747,0,0,1-.121-1.532,1.058,1.058,0,0,0-.671-1.122,11.585,11.585,0,0,1-1.075-.683l0-.208a12.456,12.456,0,0,1,1.277-.5,1.011,1.011,0,0,0,.839-.924,13.3,13.3,0,0,1,.421-1.519,10.056,10.056,0,0,1,.9,1.1,1.147,1.147,0,0,0,1.4.6,6.521,6.521,0,0,1,1.144-.064Zm-36.926-6.235a11.594,11.594,0,0,1,1.447.427,1.55,1.55,0,0,1,.706.62,13.178,13.178,0,0,1,.633,1.594,6.259,6.259,0,0,0,.611-.859,1.593,1.593,0,0,1,1.767-1.074,6.862,6.862,0,0,0,1.15-.091c-.408-.5-.678-.877-.994-1.21a1,1,0,0,1-.256-1.169,11.834,11.834,0,0,0,.349-1.54,10.256,10.256,0,0,0-1.333.517,1.12,1.12,0,0,1-1.413-.164c-.322-.261-.7-.458-1.229-.8.033.705.02,1.2.09,1.676a.836.836,0,0,1-.386.934c-.417.282-.8.621-1.192.936Zm-3.355,6.473a.863.863,0,0,1-.682-.746c-.093-.478-.236-.944-.358-1.416l-.227-.07c-.275.342-.575.666-.819,1.029a1.068,1.068,0,0,1-1.137.541,12.976,12.976,0,0,0-1.573-.013,12.363,12.363,0,0,0,.715,1.1,1.254,1.254,0,0,1,.175,1.591,7.951,7.951,0,0,0-.455,1.3c.651-.18,1.112-.271,1.545-.438a.924.924,0,0,1,1.1.221,15.57,15.57,0,0,0,1.276,1.006c.049-.72.114-1.233.109-1.745a.778.778,0,0,1,.445-.776c.447-.251.867-.548,1.477-.937C2567.555,7333.809,2567.1,7333.576,2566.615,7333.436Zm26.951-9.4a12.687,12.687,0,0,0,.347,1.352.949.949,0,0,1-.23,1.113c-.333.343-.612.74-.914,1.113l.11.175a13.116,13.116,0,0,1,1.534.116,1.4,1.4,0,0,1,.761.431,13.488,13.488,0,0,1,.891,1.3l.2-.03c.163-.437.361-.867.48-1.316a.979.979,0,0,1,.892-.783c.451-.074.892-.215,1.337-.327l.041-.222c-.38-.3-.744-.634-1.145-.91a.894.894,0,0,1-.428-.98,12.544,12.544,0,0,0,.015-1.624c-.523.336-.936.56-1.3.846a.912.912,0,0,1-1.117.121,12.746,12.746,0,0,0-1.3-.52Zm10.725,20.289c.221.419.42.853.672,1.252a.838.838,0,0,1,0,1.009c-.26.41-.459.857-.78,1.471a12.117,12.117,0,0,0,1.643-.22.911.911,0,0,1,1.066.356c.3.355.654.668,1.135,1.151a12.174,12.174,0,0,0,.286-1.627.918.918,0,0,1,.671-.907c.426-.18.827-.416,1.429-.726-.636-.327-1.076-.583-1.541-.781a.8.8,0,0,1-.553-.777c-.034-.5-.163-.992-.286-1.679a11.586,11.586,0,0,0-.961.934,1.227,1.227,0,0,1-1.521.491,5.48,5.48,0,0,0-1.164-.152Zm-18.05-19.894a.935.935,0,0,1,.388-1.118c.354-.3.671-.636,1.156-1.1a14.275,14.275,0,0,0-1.663-.282.888.888,0,0,1-.869-.632c-.189-.443-.421-.868-.635-1.3l-.242,0c-.2.394-.426.775-.592,1.183a1.059,1.059,0,0,1-1.07.763,8.03,8.03,0,0,0-1.283.219l-.052.207a9.876,9.876,0,0,0,.9.895,1.069,1.069,0,0,1,.417,1.3,9.974,9.974,0,0,0-.2,1.478c.61-.313,1.041-.5,1.438-.748a.877.877,0,0,1,1.064-.008,16.5,16.5,0,0,0,1.468.759A10.68,10.68,0,0,0,2586.241,7324.435Zm-27.859,21.4a13.13,13.13,0,0,0,1.24.633,1.028,1.028,0,0,1,.713,1.03,11.876,11.876,0,0,0,.208,1.306l.211.079a12.591,12.591,0,0,0,.967-1,1.038,1.038,0,0,1,1.147-.361,12.323,12.323,0,0,0,1.374.1,7.471,7.471,0,0,0-.534-1.28.989.989,0,0,1,.02-1.187c.234-.388.4-.814.682-1.391a13.964,13.964,0,0,0-1.667.251.825.825,0,0,1-.951-.325c-.321-.368-.684-.7-1.183-1.2-.118.684-.236,1.155-.271,1.633a.907.907,0,0,1-.628.88c-.452.181-.883.416-1.323.628Z" transform="translate(-2552.337 -7314.189)" fill="#ffd112"/>
        <path id="Path_527" data-name="Path 527" d="M2517.023,7319.77a8.266,8.266,0,0,0-2.2-6.848,15.456,15.456,0,0,1-1.821-2.771,6.57,6.57,0,0,1,.188-6.771,21.766,21.766,0,0,1,1.994-2.893,7.9,7.9,0,0,0,1.865-5.6,24.138,24.138,0,0,1,.192-4.352,6.229,6.229,0,0,1,3.99-5.016,25.28,25.28,0,0,1,3.5-1.224,7.479,7.479,0,0,0,4.55-3.343,29.1,29.1,0,0,1,1.965-2.68,6.739,6.739,0,0,1,7.656-2.31,27.383,27.383,0,0,1,2.72.888,7.741,7.741,0,0,0,5.894-.005,24.69,24.69,0,0,1,3.8-1.1,6.257,6.257,0,0,1,6.294,2.264,24.789,24.789,0,0,1,2.18,2.923,7.7,7.7,0,0,0,4.6,3.385,24.234,24.234,0,0,1,4.124,1.566,6.127,6.127,0,0,1,3.426,5.205,26.137,26.137,0,0,1,.1,3.841,7.724,7.724,0,0,0,1.811,5.486,23.445,23.445,0,0,1,2.069,3,6.688,6.688,0,0,1-.061,7.176,22.278,22.278,0,0,1-1.97,2.833,7.805,7.805,0,0,0-1.842,5.606,25.83,25.83,0,0,1-.1,3.71,6.439,6.439,0,0,1-4.115,5.643,22.169,22.169,0,0,1-3.25,1.139,7.7,7.7,0,0,0-4.864,3.543,22.94,22.94,0,0,1-1.935,2.619,6.729,6.729,0,0,1-7.558,2.257,29.244,29.244,0,0,1-2.78-.913,7.785,7.785,0,0,0-5.835,0,25.7,25.7,0,0,1-3.867,1.117,6.25,6.25,0,0,1-6.2-2.2,20.739,20.739,0,0,1-2.156-2.857,7.718,7.718,0,0,0-4.851-3.56,25.318,25.318,0,0,1-2.777-.922,6.965,6.965,0,0,1-4.735-6.811C2517,7321.119,2517.023,7320.444,2517.023,7319.77Zm2.023-.513h.053c0,.739-.022,1.48,0,2.218.1,2.917,1.157,4.364,3.9,5.348,1.041.373,2.092.722,3.151,1.039a7.591,7.591,0,0,1,4.269,3.133c.387.578.771,1.161,1.2,1.7a23.261,23.261,0,0,0,2.027,2.372,3.781,3.781,0,0,0,3.612,1.018,32.56,32.56,0,0,0,3.868-1.12,8.976,8.976,0,0,1,6.788.012c.862.35,1.771.584,2.655.881a4.88,4.88,0,0,0,5.962-1.92c.685-.925,1.371-1.853,2.012-2.809a8.038,8.038,0,0,1,4.528-3.312,38.816,38.816,0,0,0,4.042-1.439,4.4,4.4,0,0,0,2.754-4.087,23.707,23.707,0,0,0,.061-3,9.34,9.34,0,0,1,2.244-7.066,20.218,20.218,0,0,0,1.787-2.564,4.708,4.708,0,0,0,.074-5.292c-.732-1.179-1.542-2.314-2.381-3.42a7.728,7.728,0,0,1-1.7-5.082c.039-1.108.034-2.218.021-3.327-.036-2.949-1.127-4.486-3.9-5.488-.938-.339-1.879-.681-2.841-.937a8.207,8.207,0,0,1-4.9-3.64,29.437,29.437,0,0,0-2.353-3.121,4.359,4.359,0,0,0-4.758-1.467c-1.148.32-2.3.648-3.413,1.065a8.782,8.782,0,0,1-6.42.042c-.931-.354-1.884-.662-2.843-.936-2.789-.8-4.385-.271-6.15,2.036-.647.845-1.263,1.717-1.852,2.6a8.052,8.052,0,0,1-4.565,3.367,40.123,40.123,0,0,0-3.981,1.416,4.339,4.339,0,0,0-2.805,4.044c-.083,1.67-.082,3.345-.121,5.018a6.1,6.1,0,0,1-1.019,3.382c-.822,1.2-1.689,2.372-2.517,3.569-1.718,2.49-1.7,4.5.057,6.965.618.867,1.257,1.719,1.884,2.581a6.946,6.946,0,0,1,1.538,3.539C2519.1,7317.471,2519.047,7318.367,2519.047,7319.257Zm8.021-12.356a17.473,17.473,0,1,1,17.1,17.516A17.5,17.5,0,0,1,2527.068,7306.9Zm17.455,15.4a15.359,15.359,0,1,0-15.342-15.373A15.38,15.38,0,0,0,2544.522,7322.3Zm8.4,5.659-2.189-2.842-1.561.592,2.274,6.309,1.4-.532-1.218-3.53c.771.866,1.435,1.779,2.13,2.669a.714.714,0,0,0,.554.273,9.853,9.853,0,0,0,1.3-.472l-2.271-6.262-1.4.543,1.106,3.176Zm-16.466,3.634,1.545-6.486c.808.2,1.584.368,2.345.588.625.181,1.215.461,1.213,1.247,0,.914-.241,1.756-1.161,1.989a1.353,1.353,0,0,1,.38,1.585c-.186.638-.284,1.3-.423,1.97a.6.6,0,0,1-.17.012c-1.4-.284-1.431-.335-1.067-1.733.065-.252.141-.5.191-.756.112-.566.033-.663-.671-.794l-.683,2.713Zm2.8-5.053c-.135.579-.241,1.03-.379,1.626.375-.079.771-.053.851-.2a1.9,1.9,0,0,0,.19-1.042C2539.909,7326.8,2539.535,7326.7,2539.259,7326.544Zm-12.546-8.325a1.581,1.581,0,0,0,.676-2.325c-.51-1.1-1.405-1.638-2.325-1.215a36.678,36.678,0,0,0-3.661,1.976,1.221,1.221,0,0,0-.476,1.753,5.082,5.082,0,0,0,.785.852c-.174.584.318.909.528,1.37l3.221-1.742-.966-1.79-1.058.576.162.507c-.2.108-.349.188-.5.276-.3.18-.62.343-.835-.061s.1-.588.4-.751q1.119-.6,2.238-1.2a2.163,2.163,0,0,1,.7-.335c.208-.021.437.146.655.23a2.33,2.33,0,0,1-.276.58,2.389,2.389,0,0,1-.558.361l.67,1.252C2526.332,7318.415,2526.529,7318.329,2526.713,7318.219Zm-1.325,4.068a1.766,1.766,0,0,0,.045,2.475c.813.894,1.8,1.117,2.584.426,1.3-1.145,2.513-2.381,3.723-3.54l-1.084-1.1c-.05.042-.119.093-.18.153-1.108,1.072-2.207,2.155-3.335,3.206a.7.7,0,0,1-.647.113c-.32-.2-.177-.479.049-.7.139-.137.284-.27.416-.413.982-1.07,1.961-2.143,2.965-3.242l-.951-.879C2527.773,7319.95,2526.553,7321.092,2525.388,7322.287Zm20.95,9.327h-1l-.175,1.163-1.513.115c.3-2.29.593-4.494.888-6.728l2.043-.142c.542,2.205,1.078,4.383,1.615,6.564C2546.659,7332.849,2546.659,7332.849,2546.338,7331.614Zm-.63-3.958-.107-.012c-.057.9-.114,1.8-.174,2.756l.721-.1Zm-11.85-4.646,1.769,1.026-2.237,6.407-1.4-.792.432-1.117-.88-.507-.772.912-1.329-.747Zm-.929,4.381.97-2.235-.153-.083-1.458,1.931Zm28.781-8.791-.99-.831-2.2,2.622,5.129,4.316,2.265-2.707-.98-.822-1.269,1.471-1.107-.917,1.022-1.285-.982-.809-1.058,1.236-1.019-.828Zm-.076-2.251,6.052,2.767,1.473-3.173-1.155-.525-.85,1.751-1.308-.6.668-1.5-1.149-.494-.734,1.448-1.145-.541.763-1.706-1.163-.526Zm-3.461,6.082-.754-1.02-2.861,2.06.753,1.013.828-.516,3.126,4.349,1.25-.9-3.1-4.348Zm-25.486-15.392h1.4v-3.814l.1-.008.628,3.849h.963l.7-3.956.129.009v3.968h1.354v-6.256c-.606,0-1.168.019-1.728-.006-.382-.018-.538.113-.576.5-.068.687-.195,1.368-.3,2.052h-.135l-.4-2.51h-2.152Zm10.765.041h1.37v-3.345a19.828,19.828,0,0,1,1,2.9.566.566,0,0,0,.685.5c.319-.025.642-.005.983-.005v-6.255h-1.345v3.06a9.518,9.518,0,0,1-.77-1.915c-.4-1.271-.4-1.272-1.736-1.173a1.158,1.158,0,0,0-.191.064Zm-5.293,4.831c.818.459.967,1.253.684,2.43-.185.769-.736,1.081-1.709,1.091-.609.006-1.218,0-1.827-.006a2.385,2.385,0,0,1-.244-.03V7308.8c.85,0,1.7-.067,2.53.016,1.168.119,1.674,1.792.88,2.79A3.61,3.61,0,0,1,2538.159,7311.912Zm-1.545.66v1.694c.805.16.783-.352.781-.847S2537.357,7312.434,2536.613,7312.571Zm-.015-2.6v1.4c.573.11.763-.172.777-.66S2537.254,7309.854,2536.6,7309.973Zm14.468,4.3c.028-.357.108-.71.165-1.064l.194.02c.1.331.2.661.3.992.4,1.369.4,1.37,1.8,1.221a.75.75,0,0,0,.167-.083c-.335-1.017-.654-2.05-1.019-3.066a1.6,1.6,0,0,1,.073-1.423c.356-.654.633-1.351.972-2.092a6.455,6.455,0,0,1-.895-.007c-.578-.092-.861.141-1.016.7a16.631,16.631,0,0,1-.633,1.641l-.144-.035v-2.248h-1.46v6.593h1.492C2551.059,7315.008,2551.037,7314.641,2551.065,7314.278Zm-6.963,1.153h-1.586c-.068-.37-.134-.727-.207-1.116h-1l-.221,1.113h-1.511l1.218-6.609h2.071Zm-2.208-4.883-.139-.009c-.108.832-.217,1.665-.325,2.492h.748Zm5.235,3.368c-.039.179-.283.314-.435.47-.136-.147-.386-.291-.39-.441q-.049-1.824,0-3.651a.557.557,0,0,1,.416-.363.6.6,0,0,1,.41.382,3.938,3.938,0,0,1,.058.87h1.472c.013-.18.03-.309.03-.437a2,2,0,1,0-4,0c0,.936,0,1.871.019,2.806a2.037,2.037,0,0,0,.824,1.694,1.951,1.951,0,0,0,2.26.074,2.158,2.158,0,0,0,.813-2.487h-1.459A5.429,5.429,0,0,1,2547.129,7313.915Zm-4.545-9.949c0,.542.015,1.085,0,1.627a1.638,1.638,0,0,1-1.554,1.615c-1.157.082-2.021-.415-2.09-1.365a26.758,26.758,0,0,1,0-3.7c.063-.945.926-1.482,2.005-1.408a1.674,1.674,0,0,1,1.649,1.669c.01.521,0,1.041,0,1.563Zm-2.234-.023c0,.542-.031,1.085.018,1.622.016.177.234.336.359.5.142-.154.4-.306.406-.466.036-1.08.037-2.164,0-3.245-.005-.164-.264-.319-.405-.479-.126.169-.344.33-.361.509C2540.318,7302.9,2540.35,7303.423,2540.351,7303.943Zm8.137,3.106h3.2V7305.9h-1.762v-1.428h1.477v-1.2h-1.477v-1.187h1.685v-1.219h-3.124Zm5.728-4.417c-.1-.509-.043-1.148-.336-1.486-.268-.309-.912-.292-1.546-.46.624,2.236,1.58,4.183,1.178,6.35h1.538c-.468-2.21.509-4.135,1.074-6.143-1.415-.16-1.414-.16-1.668,1.1-.043.21-.1.418-.153.626Z" transform="translate(-2512.154 -7275.599)" fill="#0c4b9b"/>
      </g>
    </g>
    <g id="Group_709" data-name="Group 709">
      <g transform="matrix(1, 0, 0, 1, 134.08, 123)" filter="url(#Rectangle_352)">
        <rect id="Rectangle_352-2" data-name="Rectangle 352" width="93" height="93" rx="21" transform="translate(145.92 70)" fill="#fff"/>
      </g>
      <g id="Group_673" data-name="Group 673" transform="translate(295.688 207.658)">
        <path id="Path_528" data-name="Path 528" d="M3352.486,7671.285l1.79,1.617-11.876,13.069-1.785-1.613Zm-3.854,10.9a3.557,3.557,0,1,0,3.558-3.551A3.508,3.508,0,0,0,3348.631,7682.181Zm2.376-.016a1.177,1.177,0,0,1,2.354,0,1.177,1.177,0,1,1-2.354,0Zm-4.749-7.1a3.556,3.556,0,1,0-3.627,3.563A3.514,3.514,0,0,0,3346.258,7675.065Zm-2.376,0a1.251,1.251,0,0,1-1.2,1.183,1.268,1.268,0,0,1-1.164-1.143,1.24,1.24,0,0,1,1.157-1.219A1.26,1.26,0,0,1,3343.882,7675.069Z" transform="translate(-3311.924 -7659.04)" fill="#ffd112"/>
        <path id="Path_529" data-name="Path 529" d="M3170.078,7648.117c-.421,1.059-.632,1.19-1.78,1.189-4.147,0-8.293,0-12.5,0v-2.358h7.018v-16.582h-7.028v-2.408h4.737l7.851,0c1.086,0,1.3.147,1.695,1.186,3.762,0,7.539.014,11.315-.013a2.072,2.072,0,0,1,1.63.67c1.951,1.994,3.942,3.949,5.9,5.934a1.031,1.031,0,0,0,1.042.319q8.763-1.549,17.534-3.056c1.771-.308,3.541-.62,5.313-.92a3.882,3.882,0,0,1,2.681,7.163c-2.135,1.282-4.3,2.519-6.446,3.774q-9.549,5.571-19.094,11.15a4.209,4.209,0,0,1-4.344.164c-3.668-1.866-7.367-3.669-11.029-5.544a5.123,5.123,0,0,0-2.887-.68C3171.15,7648.159,3170.6,7648.117,3170.078,7648.117Zm11.393-10.321c.2.19.365.337.521.493q2.753,2.748,5.5,5.5a2.147,2.147,0,0,0,2,.722,2.086,2.086,0,0,0,1.709-1.551,2.115,2.115,0,0,0-.665-2.211q-4.423-4.431-8.865-8.843a1.5,1.5,0,0,0-.959-.367c-3.31-.029-6.619-.02-9.929-.021H3170v14.227c.918,0,1.8.037,2.682-.011a4.327,4.327,0,0,1,2.255.547c3.869,1.96,7.762,3.875,11.629,5.84a2.143,2.143,0,0,0,2.281-.1c4.971-2.93,9.962-5.825,14.947-8.731q5.112-2.982,10.223-5.966c1.042-.609,1.292-1.607.617-2.4a1.832,1.832,0,0,0-1.923-.4q-7.171,1.235-14.339,2.488c-2.269.4-4.536.8-7.024,1.246.4.357.686.585.941.844a4.554,4.554,0,1,1-6.435,6.443c-1.791-1.772-3.56-3.566-5.355-5.334a4.458,4.458,0,0,0-.827-.529Zm-13.925,9.1v-16.5h-2.279v16.5Zm23.761-53.86a14.1,14.1,0,0,1,5.333-3.458,13.585,13.585,0,0,1,17.128,7.827c2.435,5.937,1.573,11.532-2.812,16.288-6.077,6.589-12.315,13.031-18.487,19.533-.9.944-1.44.934-2.344-.019q-9.181-9.673-18.358-19.347a15.078,15.078,0,0,1,1.674-22.359,13.453,13.453,0,0,1,17.261.96C3190.882,7592.631,3191.059,7592.8,3191.307,7593.037Zm.1,38a3.62,3.62,0,0,1,.348-.545q8.66-9.146,17.328-18.284a12.661,12.661,0,0,0,2.091-14.73,11.151,11.151,0,0,0-17.167-3.646c-.627.514-1.165,1.138-1.749,1.7a1.236,1.236,0,0,1-1.887.007c-.39-.378-.746-.791-1.14-1.165a10.682,10.682,0,0,0-8.264-3.142,11.08,11.08,0,0,0-9.761,6.774,12.486,12.486,0,0,0,2.287,14.137c5.175,5.507,10.393,10.973,15.593,16.456C3189.808,7629.375,3190.54,7630.136,3191.4,7631.041Zm-5.98-13.716v2.287h2.3v-2.287Zm4.749.006v2.275h2.287v-2.275Zm4.738,0v2.284h2.3v-2.284Z" transform="translate(-3155.787 -7588.806)" fill="#0c4b9b"/>
      </g>
    </g>
  </g>
</svg>
