<svg xmlns="http://www.w3.org/2000/svg" width="64.808" height="64.837" viewBox="0 0 64.808 64.837">
  <path id="Path_496" data-name="Path 496" d="M1753.482,6235.868c-1.472-.163-2.951-.282-4.416-.5a32.36,32.36,0,1,1,35.683-42.421,31.4,31.4,0,0,1,1.7,8.79c.015.344.087.686.133,1.028v1.784c-.16,1.281-.278,2.569-.488,3.842a32.2,32.2,0,0,1-11.005,19.644,48.434,48.434,0,0,1-3.976,2.927c-.787.551-1.5.452-1.919-.172-.437-.652-.229-1.359.62-1.888a29.754,29.754,0,0,0,10.73-11.354,28.431,28.431,0,0,0,3.294-17.386c-1.645-12.577-8.559-21.245-20.534-25.175a29.9,29.9,0,1,0,.412,56.787c.2-.068.4-.156.608-.223.906-.3,1.559-.057,1.816.658s-.08,1.376-.99,1.647a50.172,50.172,0,0,1-4.915,1.318c-1.8.342-3.633.468-5.452.688Zm-18.12-24.374a11.66,11.66,0,0,0,10.8,10.747q7.98.237,15.972,0a11.579,11.579,0,0,0,10.819-10.8q.237-7.982,0-15.977a11.6,11.6,0,0,0-10.808-10.818c-4.915-.169-9.839-.081-14.759-.1a2.056,2.056,0,0,0-.481.06,1.2,1.2,0,0,0-1,1.124,1.171,1.171,0,0,0,.839,1.32,3.3,3.3,0,0,0,1.035.125c4.569.011,9.14-.037,13.708.029a9.044,9.044,0,0,1,8.914,8.905q.1,7.383,0,14.767a9.043,9.043,0,0,1-8.837,8.814q-7.421.1-14.844,0a9.045,9.045,0,0,1-8.792-8.775c-.069-4.678,0-9.357-.037-14.036a9.221,9.221,0,0,1,5.029-8.7,1.31,1.31,0,1,0-1.213-2.3,11.378,11.378,0,0,0-6.329,9.474c-.2,2.662-.037,5.35-.037,8.027C1735.341,6206.087,1735.239,6208.8,1735.362,6211.494Zm28.835-7.706a9.957,9.957,0,1,0-19.287,3.137c.338.883,1.01,1.263,1.745.985a1.332,1.332,0,0,0,.71-1.811c-.049-.155-.109-.305-.157-.459a7.365,7.365,0,1,1,2.774,3.8q-1.38-.958-2.132.059c-.511.692-.284,1.444.659,2.091a10.528,10.528,0,0,0,6.211,1.816C1759.554,6213.4,1764.009,6209.112,1764.2,6203.788Zm-.816-12.326a2.073,2.073,0,1,0,2.1,2.052A2.116,2.116,0,0,0,1763.382,6191.461Z" transform="translate(-1721.772 -6171.031)" fill="#fff"/>
</svg>
