<svg xmlns="http://www.w3.org/2000/svg" width="64.808" height="64.836" viewBox="0 0 64.808 64.836">
  <path id="Path_495" data-name="Path 495" d="M1297.422,6236.1c-1.472-.163-2.951-.282-4.416-.5a32.36,32.36,0,1,1,35.683-42.42,31.39,31.39,0,0,1,1.7,8.791c.015.343.087.685.133,1.027v1.785c-.16,1.281-.278,2.569-.488,3.842a32.2,32.2,0,0,1-11.005,19.644,48.424,48.424,0,0,1-3.976,2.926c-.787.552-1.5.453-1.919-.172-.437-.651-.229-1.358.62-1.888a29.766,29.766,0,0,0,10.73-11.354,28.434,28.434,0,0,0,3.294-17.386c-1.645-12.578-8.559-21.245-20.535-25.174a29.9,29.9,0,1,0,.413,56.786c.2-.067.4-.155.607-.222.906-.3,1.559-.057,1.816.658s-.08,1.375-.99,1.646a50.054,50.054,0,0,1-4.915,1.318c-1.8.342-3.633.468-5.452.688Zm1.8-39.871c-1.784.025-3.569,0-5.353.011-1.079.007-1.487.406-1.488,1.456q-.006,10.22,0,20.44c0,1.018.4,1.4,1.426,1.407q2.839.007,5.678,0c1.282,0,1.642-.354,1.643-1.622,0-3.515-.027-7.03.032-10.544a6.8,6.8,0,0,1,.527-2.5c.487-1.138,1.594-1.156,2.649-1.067a1.625,1.625,0,0,1,1.481,1.492,12.882,12.882,0,0,1,.225,2.331c.024,3.46.009,6.921.016,10.382,0,1.127.4,1.528,1.5,1.53q2.92.007,5.84,0c1.019,0,1.419-.386,1.417-1.419-.007-4.407.007-8.814-.063-13.22a11.631,11.631,0,0,0-1.312-5.381,1.153,1.153,0,0,0-1.609-.63,1.123,1.123,0,0,0-.417,1.67,10.555,10.555,0,0,1,1.092,4.934c.04,3.7.022,7.408.025,11.112,0,.207-.031.413-.048.617h-4.11c0-.383,0-.706,0-1.029-.028-3.325,0-6.651-.108-9.974-.061-1.958-.7-3.707-2.757-4.453a4.7,4.7,0,0,0-6.45,3.76,10.353,10.353,0,0,0-.174,1.689c-.026,3.055-.027,6.11-.036,9.165,0,.286,0,.571,0,.848h-4.15v-18.618h3.873c0,.456.019.856,0,1.255-.04.685.132,1.267.845,1.478s1.12-.2,1.552-.732a6.373,6.373,0,0,1,7.884-2.161c.827.235,1.472.02,1.688-.6.241-.7-.107-1.288-.989-1.561a9.66,9.66,0,0,0-8.65,1.025A1.463,1.463,0,0,0,1299.226,6196.228Zm-12.131,21.061a1.111,1.111,0,0,0-1.176,1.159,1.088,1.088,0,0,0,1.164,1.091c.54.02,1.081,0,1.621,0,1.636,0,1.889-.249,1.89-1.854q0-9.931.007-19.863c0-1.17-.414-1.585-1.622-1.589-1.811-.006-3.621,0-5.432,0-1.379,0-1.705.333-1.705,1.728q0,9.931,0,19.863a5.433,5.433,0,0,0,.011.648,1.061,1.061,0,0,0,1.105,1.056,1.084,1.084,0,0,0,1.136-1.038,4.532,4.532,0,0,0,.013-.729q0-9.08,0-18.16v-.975h4.18v18.658C1287.843,6217.286,1287.469,6217.272,1287.1,6217.289Zm-2.166-21.8a4.867,4.867,0,0,0,5.4-2.13,4.894,4.894,0,0,0-6.205-7.068,1.092,1.092,0,0,0-.674,1.447,1.1,1.1,0,0,0,1.507.664c.256-.082.506-.193.767-.251a2.626,2.626,0,0,1,3.071,2.179,2.656,2.656,0,0,1-2.333,3.039,2.6,2.6,0,0,1-2.841-2.367c-.018-.3.021-.6-.008-.89a1.124,1.124,0,0,0-2.233-.086,4.865,4.865,0,0,0-.05.726A4.916,4.916,0,0,0,1284.929,6195.489Z" transform="translate(-1265.713 -6171.262)" fill="#fff"/>
</svg>
