<svg xmlns="http://www.w3.org/2000/svg" width="32.911" height="41.325" viewBox="0 0 32.911 41.325">
  <path id="Path_213" data-name="Path 213" d="M5439.1,1099.746a16.448,16.448,0,0,0-32.049,7.371,24.231,24.231,0,0,0,3.437,8.022,49.24,49.24,0,0,0,7.671,9.247c.913.88,1.866,1.734,2.786,2.559.413.37.839.752,1.254,1.13l.72.655.783-.579.139-.1c.09-.065.167-.121.251-.19a60.32,60.32,0,0,0,8.528-8.407,34.511,34.511,0,0,0,5.64-9.081A16.605,16.605,0,0,0,5439.1,1099.746Zm-3.038,9.737a32.265,32.265,0,0,1-5.27,8.461,57.764,57.764,0,0,1-7.742,7.7l-.523-.469c-.9-.812-1.842-1.651-2.723-2.5a46.938,46.938,0,0,1-7.31-8.8,21.967,21.967,0,0,1-3.124-7.246,14.022,14.022,0,0,1,10.608-16.5,14.58,14.58,0,0,1,3.188-.355,14.059,14.059,0,0,1,12.9,19.7Zm-12.878-15.784h-.023A10.2,10.2,0,0,0,5413,1103.849a10.156,10.156,0,0,0,10.13,10.165h.029a10.158,10.158,0,0,0,.03-20.317Zm5.469,15.672a7.74,7.74,0,0,1-5.5,2.272h-.023a7.754,7.754,0,0,1-5.516-2.31,7.667,7.667,0,0,1-2.248-5.471,7.824,7.824,0,0,1,7.794-7.791h.019a7.787,7.787,0,0,1,5.474,13.3Z" transform="translate(-5406.71 -1087.405)" fill="#f5f5f5"/>
</svg>
