<svg xmlns="http://www.w3.org/2000/svg" width="32.264" height="32.264" viewBox="0 0 32.264 32.264">
  <path id="Path_671" data-name="Path 671" d="M149.335,4114.741a16.132,16.132,0,1,1,11.407-4.725A16.027,16.027,0,0,1,149.335,4114.741Zm0-30.406a14.274,14.274,0,1,0,0,28.548h0a14.274,14.274,0,1,0,0-28.548Zm-2.092,15.234-1.243,0-1.24,0c-.648,0-1.18,0-1.673-.008a1.072,1.072,0,0,1-.869-.4.928.928,0,0,1-.13-.832,1,1,0,0,1,1.035-.68l1.509,0h9.185l1.72,0a.963.963,0,0,1,1.068.776.949.949,0,0,1-.16.756.8.8,0,0,1-.566.347c-.372.037-.753.042-1.077.042h-.377l-.385,0H153.9c-.395,0-.79,0-1.187,0Z" transform="translate(-133.203 -4082.477)" fill="#0c4b9b"/>
</svg>
