<svg xmlns="http://www.w3.org/2000/svg" width="64.99" height="65" viewBox="0 0 64.99 65">
  <path id="Path_695" data-name="Path 695" d="M1325.074-6005.494a32.5,32.5,0,0,1,32.513,31.906,32.578,32.578,0,0,1-32.129,33.092,32.54,32.54,0,0,1-32.857-32.355A32.441,32.441,0,0,1,1325.074-6005.494Zm.087,59.98a27.548,27.548,0,0,0,27.415-27.66,27.556,27.556,0,0,0-27.517-27.322,27.545,27.545,0,0,0-27.454,27.62A27.552,27.552,0,0,0,1325.161-5945.513Zm3.87-29.243a2.494,2.494,0,0,1,0,3.5l-10.43,10.558a2.489,2.489,0,0,0-.011,3.488l.036.037a2.491,2.491,0,0,0,3.554.013l12.1-12.233a5.14,5.14,0,0,0,0-7.227l-12.132-12.271a2.468,2.468,0,0,0-3.528.018l-.052.054a2.489,2.489,0,0,0,.017,3.48Z" transform="translate(-1292.602 6005.494)" fill="#eef7ff"/>
</svg>
