<svg xmlns="http://www.w3.org/2000/svg" width="38.537" height="40.505" viewBox="0 0 38.537 40.505">
  <path id="Path_212" data-name="Path 212" d="M3483.659,1174.829a58.3,58.3,0,0,0-3.592-5.1,5.151,5.151,0,0,0-7.35-.953c-.616.467-1.264.892-1.921,1.353a40.962,40.962,0,0,1-6.252-8.929c.753-.528,1.489-1.039,2.221-1.556a4.827,4.827,0,0,0,2.036-2.952,5.8,5.8,0,0,0-1-4.611c-.917-1.383-1.879-2.737-2.855-4.08a7.722,7.722,0,0,0-1.159-1.256,5.053,5.053,0,0,0-6.561-.341c-.969.68-1.923,1.383-2.912,2.032a4.921,4.921,0,0,0-2.142,2.976,13.891,13.891,0,0,0-.411,2.649,18.209,18.209,0,0,0,.7,5.565,37.142,37.142,0,0,0,4.707,10.575,40.134,40.134,0,0,0,11.251,12.012,15.519,15.519,0,0,0,6.731,2.86,5.229,5.229,0,0,0,3.763-.711c1.2-.821,2.407-1.64,3.575-2.508a4.715,4.715,0,0,0,1.936-5.023A5.778,5.778,0,0,0,3483.659,1174.829Zm-2.48,5.028c-1.185.867-2.383,1.719-3.605,2.533a3.257,3.257,0,0,1-2.571.253,14.849,14.849,0,0,1-5.293-2.447,35.74,35.74,0,0,1-8.825-8.747,37.463,37.463,0,0,1-6.014-12,16.906,16.906,0,0,1-.747-5.065,13.3,13.3,0,0,1,.39-2.524,2.345,2.345,0,0,1,1.057-1.4c1.025-.693,2.031-1.415,3.046-2.123a2.591,2.591,0,0,1,3.565.152,5.79,5.79,0,0,1,.925,1.026c.89,1.236,1.759,2.487,2.625,3.741a4.3,4.3,0,0,1,.8,2.026,2.464,2.464,0,0,1-1.13,2.417l-3.51,2.456c-.121.084-.239.173-.42.305.759,1.4,1.468,2.807,2.266,4.161a43.254,43.254,0,0,0,6.37,8.249c.295.3.475.342.828.083,1.083-.8,2.2-1.551,3.3-2.325a2.627,2.627,0,0,1,3.511.123,5.413,5.413,0,0,1,.913.983c.914,1.269,1.805,2.554,2.694,3.842a4.223,4.223,0,0,1,.8,2.111A2.331,2.331,0,0,1,3481.178,1179.857Zm8.791-13.934-2.3-.4a16.109,16.109,0,0,0-13.016-18.6c.133-.772.262-1.527.392-2.282C3484.492,1145.989,3491.9,1155.668,3489.969,1165.923Zm-17.472-12.435.4-2.276a12.441,12.441,0,0,1,10.165,14.486l-2.3-.408a10.23,10.23,0,0,0-8.263-11.8Z" transform="translate(-3451.74 -1144.639)" fill="#f5f5f5"/>
</svg>
