<svg xmlns="http://www.w3.org/2000/svg" width="33.264" height="33.264" viewBox="0 0 33.264 33.264">
  <path id="Path_681" data-name="Path 681" d="M773.426,4114.724A16.133,16.133,0,1,1,784.833,4110,16.025,16.025,0,0,1,773.426,4114.724Zm0-30.406a14.274,14.274,0,1,0,14.274,14.274A14.291,14.291,0,0,0,773.426,4084.317Zm.022,21.564a1.072,1.072,0,0,1-.294-.042.979.979,0,0,1-.685-1.026c-.005-.874,0-1.763,0-2.623q0-.558,0-1.117v-1.521h-1.133l-1.243,0-1.24,0c-.648,0-1.18,0-1.673-.008a1.076,1.076,0,0,1-.869-.4.929.929,0,0,1-.13-.832,1,1,0,0,1,1.035-.679q.754-.005,1.509,0h3.744v-1.115q0-.617,0-1.234c0-.967,0-1.967,0-2.95a.958.958,0,0,1,1.7-.675,1.1,1.1,0,0,1,.22.764q0,1.49,0,2.979v2.181l.6.03.14.008c.1.006.2.012.31.012h2.468q.86,0,1.72,0a.962.962,0,0,1,1.068.775.949.949,0,0,1-.16.756.8.8,0,0,1-.566.347c-.372.037-.753.042-1.077.042l-.377,0h-.523l-1.187,0h-2.37l-.027.6c0,.053-.005.1-.008.148-.006.1-.011.2-.011.307q0,.7,0,1.4c0,.926,0,1.884-.006,2.824A.972.972,0,0,1,773.448,4105.882Z" transform="translate(-756.794 -4081.96)" fill="#6c819c" stroke="rgba(0,0,0,0)" stroke-width="1"/>
</svg>
