<svg xmlns="http://www.w3.org/2000/svg" xmlns:xlink="http://www.w3.org/1999/xlink" width="790.909" height="598.923" viewBox="0 0 790.909 598.923">
  <defs>
    <filter id="Rectangle_326" x="0" y="0" width="790.909" height="598.923" filterUnits="userSpaceOnUse">
      <feOffset dy="20" input="SourceAlpha"/>
      <feGaussianBlur stdDeviation="30" result="blur"/>
      <feFlood flood-color="#5967e3" flood-opacity="0.302"/>
      <feComposite operator="in" in2="blur"/>
      <feComposite in="SourceGraphic"/>
    </filter>
  </defs>
  <g id="Group_739" data-name="Group 739" transform="translate(-864.091 -1519.235)">
    <path id="bg-blob" d="M530.7,388.2c-85.968,130.3-425.138,133.653-509.091,4.03C-61.669,263.282,110.938,2.02,280.187,0,450.108-1.338,616.671,257.237,530.7,388.2Z" transform="translate(1072.966 1579.293)" fill="#eef7ff"/>
    <g id="Group_624" data-name="Group 624" transform="translate(954 1589.235)">
      <g transform="matrix(1, 0, 0, 1, -89.91, -70)" filter="url(#Rectangle_326)">
        <rect id="Rectangle_326-2" data-name="Rectangle 326" width="610.909" height="418.923" rx="29" transform="translate(90 70)" fill="#fff"/>
      </g>
      <g id="Group_587" data-name="Group 587" transform="translate(0.091 0.407)">
        <path id="Rectangle_320" data-name="Rectangle 320" d="M28.41,0H582.5a28.41,28.41,0,0,1,28.41,28.41V39.135a0,0,0,0,1,0,0H0a0,0,0,0,1,0,0V28.41A28.41,28.41,0,0,1,28.41,0Z" fill="#0c4b9b"/>
      </g>
      <g id="Group_589" data-name="Group 589" transform="translate(0.091 15.044)">
        <path id="Path_500" data-name="Path 500" d="M54.681,99.175H138.56l8.313-24.206h135.97l8.313,24.206H665.59v54.254H54.681Z" transform="translate(-54.681 -74.968)" fill="#ebebeb"/>
      </g>
      <g id="Group_590" data-name="Group 590" transform="translate(20.069 16.419)">
        <path id="Path_501" data-name="Path 501" d="M70.888,77.241A4.591,4.591,0,1,1,66.3,72.649,4.591,4.591,0,0,1,70.888,77.241Z" transform="translate(-61.705 -72.649)" fill="#fd605c"/>
      </g>
      <g id="Group_591" data-name="Group 591" transform="translate(34.279 16.419)">
        <path id="Path_502" data-name="Path 502" d="M79.977,77.241a4.591,4.591,0,1,1-4.591-4.592A4.591,4.591,0,0,1,79.977,77.241Z" transform="translate(-70.796 -72.649)" fill="#fcbb40"/>
      </g>
      <g id="Group_592" data-name="Group 592" transform="translate(48.487 16.419)">
        <path id="Path_503" data-name="Path 503" d="M89.069,77.241a4.591,4.591,0,1,1-4.592-4.592A4.591,4.591,0,0,1,89.069,77.241Z" transform="translate(-79.886 -72.649)" fill="#35c748"/>
      </g>
      <g id="Group_594" data-name="Group 594" transform="translate(49.334 172.588)">
        <g id="Group_593" data-name="Group 593">
          <path id="Path_504" data-name="Path 504" d="M151.65,176.171c0,.225-14.655.406-32.73.406s-32.734-.181-32.734-.406,14.652-.408,32.734-.408S151.65,175.946,151.65,176.171Z" transform="translate(-86.186 -175.763)"/>
        </g>
      </g>
      <g id="Group_595" data-name="Group 595" transform="translate(49.333 191.699)">
        <rect id="Rectangle_322" data-name="Rectangle 322" width="68.019" height="68.019" rx="11" fill="#91b3fa"/>
      </g>
      <g id="Group_597" data-name="Group 597" transform="translate(153.543 207.324)">
        <g id="Group_596" data-name="Group 596">
          <path id="Path_505" data-name="Path 505" d="M530.009,198.395c0,.225-84.436.406-188.567.406-104.167,0-188.584-.181-188.584-.406s84.417-.408,188.584-.408C445.574,197.987,530.009,198.17,530.009,198.395Z" transform="translate(-152.858 -197.987)"/>
        </g>
      </g>
      <g id="Group_599" data-name="Group 599" transform="translate(157.316 232.934)">
        <g id="Group_598" data-name="Group 598">
          <path id="Path_506" data-name="Path 506" d="M254.653,214.78c0,.225-22.25.406-49.688.406s-49.693-.181-49.693-.406,22.245-.408,49.693-.408S254.653,214.555,254.653,214.78Z" transform="translate(-155.272 -214.372)"/>
        </g>
      </g>
      <rect id="Rectangle_323" data-name="Rectangle 323" width="513.817" height="38.728" rx="19.364" transform="translate(39.285 46.004)" fill="#fafafa" stroke="#c1c1c1" stroke-miterlimit="10" stroke-width="1"/>
      <g id="Group_601" data-name="Group 601" transform="translate(157.316 256.681)">
        <g id="Group_600" data-name="Group 600">
          <path id="Path_507" data-name="Path 507" d="M468.366,229.971c0,.225-70.094.408-156.539.408-86.476,0-156.555-.183-156.555-.408s70.079-.406,156.555-.406C398.273,229.565,468.366,229.746,468.366,229.971Z" transform="translate(-155.272 -229.565)" fill="#e0e0e0"/>
        </g>
      </g>
      <g id="Group_603" data-name="Group 603" transform="translate(49.334 294.42)">
        <g id="Group_602" data-name="Group 602">
          <path id="Path_508" data-name="Path 508" d="M151.65,254.116c0,.225-14.655.406-32.73.406s-32.734-.181-32.734-.406,14.652-.406,32.734-.406S151.65,253.891,151.65,254.116Z" transform="translate(-86.186 -253.71)"/>
        </g>
      </g>
      <g id="Group_604" data-name="Group 604" transform="translate(49.333 313.531)">
        <rect id="Rectangle_324" data-name="Rectangle 324" width="68.019" height="68.019" rx="11" fill="#91b3fa"/>
      </g>
      <g id="Group_606" data-name="Group 606" transform="translate(153.543 329.157)">
        <g id="Group_605" data-name="Group 605">
          <path id="Path_509" data-name="Path 509" d="M552.417,276.34c0,.225-89.452.406-199.771.406-110.357,0-199.788-.181-199.788-.406s89.431-.406,199.788-.406C462.965,275.934,552.417,276.115,552.417,276.34Z" transform="translate(-152.858 -275.934)"/>
        </g>
      </g>
      <g id="Group_608" data-name="Group 608" transform="translate(157.316 354.767)">
        <g id="Group_607" data-name="Group 607">
          <path id="Path_510" data-name="Path 510" d="M254.653,292.725c0,.225-22.25.406-49.688.406s-49.693-.181-49.693-.406,22.245-.406,49.693-.406S254.653,292.5,254.653,292.725Z" transform="translate(-155.272 -292.319)"/>
        </g>
      </g>
      <g id="Group_610" data-name="Group 610" transform="translate(157.316 378.512)">
        <g id="Group_609" data-name="Group 609">
          <path id="Path_511" data-name="Path 511" d="M522.9,307.917c0,.225-82.3.408-183.8.408-101.535,0-183.82-.183-183.82-.408s82.285-.406,183.82-.406C440.593,307.511,522.9,307.694,522.9,307.917Z" transform="translate(-155.272 -307.511)" fill="#e0e0e0"/>
        </g>
      </g>
      <g id="Group_612" data-name="Group 612" transform="translate(115.41 30.322)">
        <g id="Group_611" data-name="Group 611">
          <path id="Path_512" data-name="Path 512" d="M224.81,85.151c0,.224-21.57.406-48.172.406s-48.177-.183-48.177-.406,21.565-.408,48.177-.408S224.81,84.926,224.81,85.151Z" transform="translate(-128.461 -84.743)"/>
        </g>
      </g>
      <g id="Group_613" data-name="Group 613" transform="translate(39.285 107.661)">
        <rect id="Rectangle_325" data-name="Rectangle 325" width="513.817" height="25.774" rx="12.887" fill="#91b3fa"/>
      </g>
      <g id="Group_615" data-name="Group 615" transform="translate(157.515 174.76)">
        <g id="Group_614" data-name="Group 614">
          <path id="Path_513" data-name="Path 513" d="M274.238,177.559c0,.225-26.606.406-59.418.406s-59.421-.181-59.421-.406,26.6-.406,59.421-.406S274.238,177.334,274.238,177.559Z" transform="translate(-155.399 -177.153)" fill="#ff725e"/>
        </g>
      </g>
      <g id="Group_617" data-name="Group 617" transform="translate(157.515 294.42)">
        <g id="Group_616" data-name="Group 616">
          <path id="Path_514" data-name="Path 514" d="M274.238,254.116c0,.225-26.606.406-59.418.406s-59.421-.181-59.421-.406,26.6-.406,59.421-.406S274.238,253.891,274.238,254.116Z" transform="translate(-155.399 -253.71)" fill="#ff725e"/>
        </g>
      </g>
      <g id="Group_619" data-name="Group 619" transform="translate(269.011 231.176)">
        <g id="Group_618" data-name="Group 618">
          <path id="Path_515" data-name="Path 515" d="M341.065,213.653c0,.225-25.6.408-57.163.408s-57.169-.183-57.169-.408,25.59-.406,57.169-.406S341.065,213.43,341.065,213.653Z" transform="translate(-226.733 -213.247)"/>
        </g>
      </g>
      <g id="Group_621" data-name="Group 621" transform="translate(397.415 229.417)">
        <g id="Group_620" data-name="Group 620">
          <path id="Path_516" data-name="Path 516" d="M368.688,212.528c0,.225-13.389.406-29.9.406s-29.9-.181-29.9-.406,13.386-.406,29.9-.406S368.688,212.3,368.688,212.528Z" transform="translate(-308.884 -212.122)"/>
        </g>
      </g>
      <g id="Group_623" data-name="Group 623" transform="translate(268.469 354.767)">
        <g id="Group_622" data-name="Group 622">
          <path id="Path_517" data-name="Path 517" d="M340.719,292.725c0,.225-25.6.406-57.164.406s-57.169-.181-57.169-.406,25.591-.406,57.169-.406S340.719,292.5,340.719,292.725Z" transform="translate(-226.386 -292.319)"/>
        </g>
      </g>
      <text id="https:_YarPay.net_YourName" data-name="https://YarPay.net/YourName" transform="translate(62.975 71.804)" fill="#0c5aaf" font-size="21" font-family="Helvetica"><tspan x="0" y="0" fill="#939393">https://</tspan><tspan y="0" fill="#000">YarPay.net/</tspan><tspan y="0" fill="#0c5aaf" font-family="MyriadPro-Bold, Myriad Pro" font-weight="700">YourName</tspan></text>
      <rect id="Rectangle_330" data-name="Rectangle 330" width="68" height="20" rx="10" transform="translate(49 163.765)" fill="#ffd112"/>
      <rect id="Rectangle_341" data-name="Rectangle 341" width="68" height="20" rx="10" transform="translate(49 284.765)" fill="#ffd112"/>
      <rect id="Rectangle_331" data-name="Rectangle 331" width="127" height="20" rx="10" transform="translate(154 163.765)" fill="#f2f2f2"/>
      <rect id="Rectangle_340" data-name="Rectangle 340" width="127" height="20" rx="10" transform="translate(154 284.765)" fill="#f2f2f2"/>
      <rect id="Rectangle_333" data-name="Rectangle 333" width="105" height="20" rx="10" transform="translate(154 222.765)" fill="#f2f2f2"/>
      <rect id="Rectangle_339" data-name="Rectangle 339" width="105" height="20" rx="10" transform="translate(154 343.765)" fill="#f2f2f2"/>
      <rect id="Rectangle_334" data-name="Rectangle 334" width="119" height="20" rx="10" transform="translate(269 222.765)" fill="#f2f2f2"/>
      <rect id="Rectangle_337" data-name="Rectangle 337" width="119" height="20" rx="10" transform="translate(269 343.765)" fill="#f2f2f2"/>
      <rect id="Rectangle_335" data-name="Rectangle 335" width="69" height="20" rx="10" transform="translate(396 222.765)" fill="#f2f2f2"/>
      <rect id="Rectangle_336" data-name="Rectangle 336" width="69" height="20" rx="10" transform="translate(396 343.765)" fill="#f2f2f2"/>
      <rect id="Rectangle_332" data-name="Rectangle 332" width="399" height="20" rx="10" transform="translate(154 197.765)" fill="#f2f2f2"/>
      <rect id="Rectangle_338" data-name="Rectangle 338" width="399" height="20" rx="10" transform="translate(154 318.765)" fill="#f2f2f2"/>
    </g>
  </g>
</svg>
