<svg xmlns="http://www.w3.org/2000/svg" xmlns:xlink="http://www.w3.org/1999/xlink" width="605.711" height="594.433" viewBox="0 0 605.711 594.433">
  <defs>
    <linearGradient id="linear-gradient" x1="0.496" y1="-0.039" x2="0.505" y2="2.277" gradientUnits="objectBoundingBox">
      <stop offset="0" stop-color="#09005d"/>
      <stop offset="1" stop-color="#1a0f91"/>
    </linearGradient>
    <linearGradient id="linear-gradient-2" x1="0.495" y1="7.11" x2="0.501" y2="-0.187" xlink:href="#linear-gradient"/>
    <linearGradient id="linear-gradient-3" x1="0.482" y1="-0.352" x2="0.505" y2="0.969" xlink:href="#linear-gradient"/>
    <filter id="Path_602" x="92.464" y="0" width="513.247" height="365.593" filterUnits="userSpaceOnUse">
      <feOffset dy="20" input="SourceAlpha"/>
      <feGaussianBlur stdDeviation="30" result="blur"/>
      <feFlood flood-color="#5967e3" flood-opacity="0.302"/>
      <feComposite operator="in" in2="blur"/>
      <feComposite in="SourceGraphic"/>
    </filter>
    <linearGradient id="linear-gradient-4" x1="0.508" y1="0.317" x2="0.673" y2="-7.177" gradientUnits="objectBoundingBox">
      <stop offset="0" stop-color="#4f52ff"/>
      <stop offset="1" stop-color="#4042e2"/>
    </linearGradient>
  </defs>
  <g id="Group_741" data-name="Group 741" transform="translate(-1040.199 -2626.634)">
    <path id="bg-blob" d="M530.7,388.2c-85.968,130.3-425.138,133.653-509.091,4.03C-61.669,263.282,110.938,2.02,280.187,0,450.108-1.338,616.671,257.237,530.7,388.2Z" transform="translate(1058.932 2733.36)" fill="#eef7ff"/>
    <g id="Group_669" data-name="Group 669" transform="translate(585.949 2161.329)">
      <g id="Group_662" data-name="Group 662" transform="translate(454.25 643.411)">
        <g id="Group_657" data-name="Group 657" transform="translate(0 0)">
          <path id="Path_576" data-name="Path 576" d="M1421.791,2618.662l-10.846,97.271h125.832l-16.39-97.271Z" transform="translate(-1234.352 -2342.209)" fill="url(#linear-gradient)"/>
          <path id="Path_577" data-name="Path 577" d="M1390.834,3133H1206.67c-5,0-8.76-3.562-7.793-7.387l2.363-9.346c.711-2.81,3.8-4.874,7.475-4.989l177.54-5.54c3.837-.12,7.234,1.917,8.07,4.838l4.26,14.886C1399.693,3129.325,1395.918,3133,1390.834,3133Z" transform="translate(-1061.305 -2739.37)" fill="url(#linear-gradient-2)"/>
          <path id="Path_578" data-name="Path 578" d="M454.25,1148.8v249.572a37.86,37.86,0,0,0,36.884,37.849c91.156,2.35,325.939,8.05,412.713,6.771a27.858,27.858,0,0,0,27.426-27.064c1.673-57.979,4.391-197.4-5.666-262.126a28.668,28.668,0,0,0-27.411-24.265c-76.377-2.443-330.31-10.2-417.044-8.254A27.519,27.519,0,0,0,454.25,1148.8Z" transform="translate(-454.25 -1120.974)" fill="url(#linear-gradient-3)"/>
          <path id="Path_579" data-name="Path 579" d="M539.088,1190.419V1427.53a21.936,21.936,0,0,0,21.608,21.933l399.846,5.978a21.349,21.349,0,0,0,21.668-21.266l.809-234.992a15.613,15.613,0,0,0-15.233-15.666l-411.369-10.009A16.917,16.917,0,0,0,539.088,1190.419Z" transform="translate(-523.428 -1163.806)" fill="#91b3fa"/>
          <path id="Path_580" data-name="Path 580" d="M982.949,2707.718h-.014l-446.764-9.044a.658.658,0,0,1,.026-1.315l446.764,9.044a.658.658,0,0,1-.013,1.315Z" transform="translate(-520.525 -2406.378)" fill="#91b3fa"/>
          <path id="Path_581" data-name="Path 581" d="M1775.95,3143.494a.658.658,0,0,1-.009-1.315l7.608-.111h.01a.658.658,0,0,1,.009,1.315l-7.608.111Z" transform="translate(-1531.446 -2769.001)" fill="#91b3fa"/>
          <path id="Path_582" data-name="Path 582" d="M1233.581,3158.767a.658.658,0,0,1-.65-.761l1.085-6.8a7.64,7.64,0,0,1,7.445-6.446l80.693-1.18a.658.658,0,1,1,.019,1.315l-80.692,1.18a6.327,6.327,0,0,0-6.166,5.338l-1.085,6.8A.658.658,0,0,1,1233.581,3158.767Z" transform="translate(-1089.19 -2770.236)" fill="#91b3fa"/>
        </g>
        <g id="Group_661" data-name="Group 661" transform="translate(35.968 27.391)">
          <path id="Path_583" data-name="Path 583" d="M658.321,2288.424l90.308,1.4a9.359,9.359,0,0,0,9.5-9.119l1.066-41.751a9.359,9.359,0,0,0-9.344-9.6l-90.341-.116a9.359,9.359,0,0,0-9.368,9.12l-1.033,40.466A9.359,9.359,0,0,0,658.321,2288.424Z" transform="translate(-649.107 -2052.061)" fill="#f4f7fa" style="mix-blend-mode: soft-light;isolation: isolate"/>
          <g id="Group_659" data-name="Group 659" transform="translate(2.628)" style="mix-blend-mode: soft-light;isolation: isolate">
            <g id="Group_658" data-name="Group 658" opacity="0.7">
              <path id="Path_584" data-name="Path 584" d="M2243.3,1518.694l16.565.194,3.092-121.071-16.549-.847Z" transform="translate(-1951.663 -1373.416)" fill="#f4f7fa"/>
              <path id="Path_585" data-name="Path 585" d="M2081.348,1783.048l16.886.2,1.561-61.118-16.878-.531Z" transform="translate(-1819.604 -1638.121)" fill="#f4f7fa"/>
              <path id="Path_586" data-name="Path 586" d="M1916.226,1452.4l17.218.2,3.45-135.119-17.2-.945Z" transform="translate(-1684.961 -1307.831)" fill="#f4f7fa"/>
              <path id="Path_587" data-name="Path 587" d="M1747.843,1534.407l17.558.206,2.967-116.205-17.542-.851Z" transform="translate(-1547.66 -1390.202)" fill="#f4f7fa"/>
              <path id="Path_588" data-name="Path 588" d="M1576.106,1908.791l17.909.21.8-31.468-17.9-.387Z" transform="translate(-1407.623 -1764.958)" fill="#f4f7fa"/>
              <path id="Path_589" data-name="Path 589" d="M1400.907,1714.65l18.27.214,1.908-74.7-18.26-.638Z" transform="translate(-1264.763 -1571.196)" fill="#f4f7fa"/>
              <path id="Path_590" data-name="Path 590" d="M1222.144,1561.249l18.643.219,2.777-108.755-18.627-.841Z" transform="translate(-1118.997 -1418.182)" fill="#f4f7fa"/>
              <path id="Path_591" data-name="Path 591" d="M1039.708,1686.3l19.027.223,2.046-80.122-19.015-.686Z" transform="translate(-970.237 -1543.628)" fill="#f4f7fa"/>
              <path id="Path_592" data-name="Path 592" d="M853.481,1482.178l19.423.228,3.206-125.564-19.4-.961Z" transform="translate(-818.384 -1339.91)" fill="#f4f7fa"/>
              <path id="Path_593" data-name="Path 593" d="M663.345,1411.219l19.832.233,3.6-141.024-19.81-1.065Z" transform="translate(-663.345 -1269.363)" fill="#f4f7fa"/>
            </g>
          </g>
          <path id="Path_594" data-name="Path 594" d="M2423.393,1891.456l73.213,1.434a4.128,4.128,0,0,0,4.208-4.022h0a4.129,4.129,0,0,0-4.035-4.233L2423.571,1883a4.128,4.128,0,0,0-4.219,4.022l-.005.2A4.129,4.129,0,0,0,2423.393,1891.456Z" transform="translate(-2092.583 -1769.728)" fill="#f4f7fa" style="mix-blend-mode: soft-light;isolation: isolate"/>
          <path id="Path_595" data-name="Path 595" d="M2425.377,1813.017l73.2,1.782a4.129,4.129,0,0,0,4.228-4.022h0a4.129,4.129,0,0,0-4.016-4.233l-73.2-1.985a4.129,4.129,0,0,0-4.239,4.022l-.005.2A4.129,4.129,0,0,0,2425.377,1813.017Z" transform="translate(-2094.216 -1705.768)" fill="#f4f7fa" style="mix-blend-mode: soft-light;isolation: isolate"/>
          <path id="Path_596" data-name="Path 596" d="M2423.4,2502.471l73.2,1.782a4.129,4.129,0,0,0,4.228-4.022h0a4.129,4.129,0,0,0-4.016-4.233l-73.2-1.985a4.128,4.128,0,0,0-4.239,4.022l-.005.2A4.128,4.128,0,0,0,2423.4,2502.471Z" transform="translate(-2092.603 -2267.958)" fill="#f4f7fa" style="mix-blend-mode: soft-light;isolation: isolate"/>
          <path id="Path_597" data-name="Path 597" d="M2422.41,2067.959a6.485,6.485,0,0,0,6.482,6.677l68.406-.005a5.8,5.8,0,0,0,6.061-5.649l1.764-69.1a5.8,5.8,0,0,0-5.648-5.949l-69.025-1.827a5.8,5.8,0,0,0-5.954,5.653Z" transform="translate(-2095.08 -1858.696)" fill="#f4f7fa" style="mix-blend-mode: soft-light;isolation: isolate"/>
          <g id="Group_660" data-name="Group 660" transform="translate(0.029 189.482)" style="mix-blend-mode: soft-light;isolation: isolate">
            <path id="Path_598" data-name="Path 598" d="M679.851,2307.413c6.917.438,8.048-3.545,14.875-3.759,11.579-.363,14.124,10.962,25.269,11.075,9.1.092,11.581-7.447,20.563-6.375,6.677.8,7.881,5.286,14.389,6.092a15.809,15.809,0,0,0,3.837-.007l-.5,19.7a10.278,10.278,0,0,1-10.434,10.015l-88.247-1.369a10.5,10.5,0,0,1-10.332-10.765l.923-36.134a39.367,39.367,0,0,1,13.083,3.418C670.54,2302.709,672.872,2306.971,679.851,2307.413Z" transform="translate(-649.265 -2295.883)" fill="#f4f7fa"/>
          </g>
          <path id="Path_599" data-name="Path 599" d="M2436.1,1447.8h58.869a11.317,11.317,0,0,0,11.313-11.028l1.2-46.987a11.317,11.317,0,0,0-11.313-11.605H2437.3a11.317,11.317,0,0,0-11.313,11.028l-1.2,46.987A11.316,11.316,0,0,0,2436.1,1447.8Z" transform="translate(-2097.016 -1358.092)" fill="#f4f7fa" style="mix-blend-mode: soft-light;isolation: isolate"/>
          <path id="Path_600" data-name="Path 600" d="M666.711,2131.567l295.323.945a6.472,6.472,0,0,0,6.491-6.307h0a6.472,6.472,0,0,0-6.422-6.637l-295.292-2.186a6.472,6.472,0,0,0-6.518,6.307l-.032,1.241A6.472,6.472,0,0,0,666.711,2131.567Z" transform="translate(-658.201 -1960.848)" fill="#f4f7fa" style="mix-blend-mode: soft-light;isolation: isolate"/>
          <path id="Path_601" data-name="Path 601" d="M1321.031,2283.243l167.406,4.97a9.466,9.466,0,0,0,9.744-9.22l1.109-43.433a9.466,9.466,0,0,0-9.423-9.707l-167.515-.7a9.466,9.466,0,0,0-9.5,9.224l-1,39.166A9.465,9.465,0,0,0,1321.031,2283.243Z" transform="translate(-1189.514 -2048.725)" fill="#f4f7fa" style="mix-blend-mode: soft-light;isolation: isolate"/>
        </g>
      </g>
      <g id="Group_668" data-name="Group 668" transform="translate(636.595 535.305)">
        <g id="Group_663" data-name="Group 663" transform="translate(0)">
          <g transform="matrix(1, 0, 0, 1, -182.34, -70)" filter="url(#Path_602)">
            <path id="Path_602-2" data-name="Path 602" d="M1751.844,720.9H1454.658c-6.576,0-11.907-5.982-11.907-13.362V553.955c0-7.3,5.217-13.245,11.719-13.36l297.708-5.287c13.094-.232,23.82,11.615,23.82,26.31V693.793C1776,708.762,1765.184,720.9,1751.844,720.9Z" transform="translate(-1260.29 -465.3)" fill="#fff"/>
          </g>
          <path id="Path_603" data-name="Path 603" d="M1792.442,764.789H1513.172c-6.18,0-11.189-5.39-11.189-12.038V614.381c0-6.574,4.9-11.933,11.012-12.037l279.76-4.763c12.3-.21,22.384,10.464,22.384,23.7V740.369C1815.14,753.856,1804.978,764.789,1792.442,764.789Z" transform="translate(-1490.93 -586.084)" fill="#91b3fa"/>
          <path id="Path_604" data-name="Path 604" d="M1775.525,581.728V561.618c0-14.7-10.753-26.543-23.847-26.31L1453.9,540.6c-6.5.115-11.792,6.063-11.792,13.36v27.773Z" transform="translate(-1442.105 -535.305)" fill="url(#linear-gradient-4)"/>
          <circle id="Ellipse_25" data-name="Ellipse 25" cx="4.521" cy="4.521" r="4.521" transform="translate(16.891 24.959)" fill="#91b3fa"/>
        </g>
        <g id="Group_667" data-name="Group 667" transform="translate(29.102 61.77)">
          <g id="Group_664" data-name="Group 664">
            <path id="Path_605" data-name="Path 605" d="M1647.193,906.834a18.959,18.959,0,0,1,14.947-9.8l.452-27.092a45.53,45.53,0,0,0-41.42,26.825Z" transform="translate(-1617.221 -869.942)" fill="#fff" opacity="0.74" style="mix-blend-mode: soft-light;isolation: isolate"/>
            <path id="Path_606" data-name="Path 606" d="M1871.122,898.335a19.8,19.8,0,0,1,16.3,17.565l26.71,1.59a47.475,47.475,0,0,0-42.558-46.2Z" transform="translate(-1821.033 -871.038)" fill="#ffd112"/>
            <path id="Path_607" data-name="Path 607" d="M1775.561,1140.641a18.94,18.94,0,0,1-18.994,15.6,19.635,19.635,0,0,1-7.922-1.772l-14.452,23.018a47.151,47.151,0,0,0,22.374,5.745,45.448,45.448,0,0,0,45.706-41.046Z" transform="translate(-1709.379 -1090.674)" fill="#fff" opacity="0.74" style="mix-blend-mode: soft-light;isolation: isolate"/>
            <path id="Path_608" data-name="Path 608" d="M1620.116,1093.9l14.489-23.035a19.578,19.578,0,0,1-7.158-15.088,19.112,19.112,0,0,1,.474-4.239l-26.048-10.035a45.632,45.632,0,0,0-2.109,13.774A47.093,47.093,0,0,0,1620.116,1093.9Z" transform="translate(-1599.763 -1009.833)" fill="#fff" opacity="0.74" style="mix-blend-mode: soft-light;isolation: isolate"/>
          </g>
          <g id="Group_665" data-name="Group 665" transform="translate(101.127 3.116)">
            <path id="Path_609" data-name="Path 609" d="M2192.317,922.659a17.876,17.876,0,0,1,14.093-9.525l.426-26.309a42.931,42.931,0,0,0-39.044,26.077Z" transform="translate(-2164.068 -886.825)" fill="#ffd112"/>
            <path id="Path_610" data-name="Path 610" d="M2403.419,914.374a18.993,18.993,0,0,1,15.373,17.05l25.2,1.531c-.32-23.128-17.793-42.51-40.149-44.849Z" transform="translate(-2356.202 -887.869)" fill="#fff" opacity="0.74" style="mix-blend-mode: soft-light;isolation: isolate"/>
            <path id="Path_611" data-name="Path 611" d="M2313.322,1149.641a17.939,17.939,0,0,1-25.384,13.445l-13.625,22.353a43.44,43.44,0,0,0,21.095,5.575c22.657.1,41.044-17.414,43.118-39.88Z" transform="translate(-2250.927 -1101.129)" fill="#fff" opacity="0.74" style="mix-blend-mode: soft-light;isolation: isolate"/>
            <path id="Path_612" data-name="Path 612" d="M2166.8,1104.426l13.659-22.369a19.257,19.257,0,0,1-6.3-18.762l-24.55-9.727a45.542,45.542,0,0,0-1.988,13.372A46.1,46.1,0,0,0,2166.8,1104.426Z" transform="translate(-2147.618 -1022.789)" fill="#fff" opacity="0.74" style="mix-blend-mode: soft-light;isolation: isolate"/>
          </g>
          <g id="Group_666" data-name="Group 666" transform="translate(196.496 6.058)">
            <path id="Path_613" data-name="Path 613" d="M2706.483,937.595a16.9,16.9,0,0,1,13.311-9.265l.4-25.569c-16.425.144-30.548,10.408-36.868,25.369Z" transform="translate(-2679.813 -902.76)" fill="#fff" opacity="0.74" style="mix-blend-mode: soft-light;isolation: isolate"/>
            <path id="Path_614" data-name="Path 614" d="M2905.828,929.512c7.764,1.413,13.8,8.238,14.524,16.563l23.818,1.475c-.3-22.486-16.817-41.316-37.94-43.57Z" transform="translate(-2861.242 -903.756)" fill="#fff" opacity="0.74" style="mix-blend-mode: soft-light;isolation: isolate"/>
            <path id="Path_615" data-name="Path 615" d="M2820.741,1158.139c-1.406,8.477-8.43,14.85-16.924,14.745a16.656,16.656,0,0,1-7.055-1.667l-12.867,21.726a40.128,40.128,0,0,0,19.923,5.415c21.406.1,38.784-16.936,40.745-38.779Z" transform="translate(-2761.815 -1111)" fill="#ffd112"/>
            <path id="Path_616" data-name="Path 616" d="M2682.393,1114.358l12.9-21.741a19.1,19.1,0,0,1-5.952-18.23l-23.178-9.437a45.726,45.726,0,0,0,16.232,49.408Z" transform="translate(-2664.285 -1035.012)" fill="#fff" opacity="0.74" style="mix-blend-mode: soft-light;isolation: isolate"/>
          </g>
        </g>
      </g>
    </g>
  </g>
</svg>
