<svg xmlns="http://www.w3.org/2000/svg" xmlns:xlink="http://www.w3.org/1999/xlink" width="685.175" height="556.635" viewBox="0 0 685.175 556.635">
  <defs>
    <filter id="Path_623" x="2.175" y="72.635" width="683" height="484" filterUnits="userSpaceOnUse">
      <feOffset dy="20" input="SourceAlpha"/>
      <feGaussianBlur stdDeviation="30" result="blur"/>
      <feFlood flood-color="#5967e3" flood-opacity="0.302"/>
      <feComposite operator="in" in2="blur"/>
      <feComposite in="SourceGraphic"/>
    </filter>
    <linearGradient id="linear-gradient" x1="1.303" y1="1.664" x2="0.323" y2="0.244" gradientUnits="objectBoundingBox">
      <stop offset="0" stop-color="#1d74e3"/>
      <stop offset="1" stop-color="#0a2d5a"/>
    </linearGradient>
  </defs>
  <g id="Group_740" data-name="Group 740" transform="translate(-199.825 -2141.365)">
    <path id="bg-blob" d="M530.7,388.2c-85.968,130.3-425.138,133.653-509.091,4.03C-61.669,263.282,110.938,2.02,280.187,0,450.108-1.338,616.671,257.237,530.7,388.2Z" transform="translate(250.932 2155.649)" fill="#eef7ff"/>
    <g id="Group_710" data-name="Group 710">
      <g id="Group_625" data-name="Group 625" transform="translate(32 310)">
        <g transform="matrix(1, 0, 0, 1, 167.83, 1831.37)" filter="url(#Path_623)">
          <path id="Path_623-2" data-name="Path 623" d="M33,0H470a33,33,0,0,1,33,33V271a33,33,0,0,1-33,33H33A33,33,0,0,1,0,271V33A33,33,0,0,1,33,0Z" transform="translate(92.17 142.63)" fill="#fff"/>
        </g>
        <rect id="Rectangle_329" data-name="Rectangle 329" width="477" height="272" rx="21" transform="translate(273 1990)" fill="#0c4b9b"/>
      </g>
      <g id="Group_572" data-name="Group 572" transform="translate(25.486 2056.919)">
        <g id="Group_552" data-name="Group 552" transform="translate(174.339 84.447)">
          <circle id="Ellipse_19" data-name="Ellipse 19" cx="78.777" cy="78.777" r="78.777" transform="translate(0 111.408) rotate(-45)" fill="url(#linear-gradient)"/>
          <g id="Group_551" data-name="Group 551" transform="translate(35.132 35.132)" opacity="0.8">
            <g id="Group_550" data-name="Group 550">
              <g id="Group_548" data-name="Group 548">
                <path id="Path_471" data-name="Path 471" d="M406.665,341.549A76.277,76.277,0,1,1,460.6,319.208,75.777,75.777,0,0,1,406.665,341.549Zm0-151.88a75.6,75.6,0,1,0,75.6,75.6A75.69,75.69,0,0,0,406.665,189.669Z" transform="translate(-330.389 -188.997)" fill="#91b3fa"/>
              </g>
              <g id="Group_549" data-name="Group 549" transform="translate(12.282 12.282)" opacity="0.77">
                <path id="Path_472" data-name="Path 472" d="M430.933,353.535a63.994,63.994,0,1,1,63.995-63.994A64.066,64.066,0,0,1,430.933,353.535Zm0-124.043a60.049,60.049,0,1,0,60.049,60.049A60.117,60.117,0,0,0,430.933,229.491Z" transform="translate(-366.939 -225.546)" fill="#91b3fa"/>
              </g>
            </g>
            <path id="Path_473" data-name="Path 473" d="M523.334,328.4h6.329c.794,0,1.638-.5,1.638-1.295v-4.315a14.857,14.857,0,0,0-14.83-14.674h-8.352V302.3c0-1.332-1.625-2.411-3.622-2.411s-3.622,1.079-3.622,2.411v5.819h-8.4a14.811,14.811,0,0,0-14.778,14.674v7.89a14.564,14.564,0,0,0,14.778,14.381h8.4v15.213h-8.4a5.243,5.243,0,0,1-5.36-5.266v-.37a1.649,1.649,0,0,0-1.5-1.608h-6.329a1.725,1.725,0,0,0-1.586,1.608v.37c0,8.066,6.711,13.959,14.778,13.959h8.4V375.5c0,1.331,1.625,2.411,3.622,2.411s3.622-1.079,3.622-2.411V368.97h8.352c8.067,0,14.83-5.892,14.83-13.959v-4.274c0-8.067-6.763-15.091-14.83-15.091h-8.352V316.812h8.352c2.991,0,5.412,2.99,5.412,5.981v4.315A1.333,1.333,0,0,0,523.334,328.4Zm-6.863,16.662a5.639,5.639,0,0,1,5.412,5.673v4.274a5.287,5.287,0,0,1-5.412,5.266h-8.352V345.065Zm-15.6-9.418h-8.4c-2.991,0-5.36-1.973-5.36-4.964v-7.89c0-2.991,2.37-5.981,5.36-5.981h8.4Z" transform="translate(-428.195 -262.626)" fill="#91b3fa" opacity="0.94"/>
          </g>
        </g>
        <g id="Group_557" data-name="Group 557" transform="translate(387.352 138.81)">
          <circle id="Ellipse_20" data-name="Ellipse 20" cx="39.065" cy="39.065" r="39.065" transform="translate(0 0)" fill="#ffd112"/>
          <g id="Group_556" data-name="Group 556" transform="translate(1.071 1.071)" opacity="0.8">
            <g id="Group_555" data-name="Group 555">
              <g id="Group_553" data-name="Group 553">
                <path id="Path_474" data-name="Path 474" d="M900.933,325.4a37.995,37.995,0,1,1,37.995-37.995A38.038,38.038,0,0,1,900.933,325.4Zm0-75.317a37.323,37.323,0,1,0,37.323,37.322A37.365,37.365,0,0,0,900.933,250.087Z" transform="translate(-862.938 -249.415)" fill="#0c4b9b"/>
              </g>
              <g id="Group_554" data-name="Group 554" transform="translate(6.26 6.26)" opacity="0.71">
                <path id="Path_475" data-name="Path 475" d="M913.3,331.513a31.735,31.735,0,1,1,31.735-31.735A31.77,31.77,0,0,1,913.3,331.513Zm0-61.513a29.778,29.778,0,1,0,29.778,29.778A29.812,29.812,0,0,0,913.3,270Z" transform="translate(-881.567 -268.044)" fill="#0c4b9b"/>
              </g>
            </g>
            <path id="Path_476" data-name="Path 476" d="M959.387,318.7h3.138c.394,0,1.166.105,1.166-.289v-2.139a8.067,8.067,0,0,0-7.708-7.714H952.1v-2.449c0-.66-.821-1.2-1.811-1.2s-1.811.535-1.811,1.2v2.449h-4.4c-4,0-7.194,3.713-7.194,7.714v3.913a7.172,7.172,0,0,0,7.194,7.209h4.4v7.244h-4.4a2.594,2.594,0,0,1-2.848-2.389v-.183c0-.394-.162-1.05-.555-1.05h-3.138c-.394,0-.653.656-.653,1.05v.183c0,4,3.194,6.735,7.194,6.735h4.4v3.427c0,.66.821,1.2,1.811,1.2s1.811-.535,1.811-1.2v-3.427h3.883c4,0,7.708-2.735,7.708-6.735v-2.12a8.153,8.153,0,0,0-7.708-7.807H952.1V312.9h3.883c1.483,0,2.637,1.884,2.637,3.367v2.139C958.621,318.8,958.993,318.7,959.387,318.7Zm-3.4,8.693a2.688,2.688,0,0,1,2.637,2.736v2.12a2.407,2.407,0,0,1-2.637,2.389H952.1V327.39Zm-7.505-5.071h-4.4c-1.483,0-2.848-.655-2.848-2.138v-3.913c0-1.483,1.365-3.367,2.848-3.367h4.4Z" transform="translate(-912.039 -286.263)" fill="#0c4b9b" opacity="0.7"/>
          </g>
        </g>
        <g id="Group_569" data-name="Group 569" transform="translate(275.541 222.145)">
          <g id="Group_564" data-name="Group 564" transform="translate(49.739 116.568)">
            <rect id="Rectangle_299" data-name="Rectangle 299" width="76.789" height="62.301" rx="26.323" transform="translate(0.336 0.221)" fill="#ffd112"/>
            <g id="Group_563" data-name="Group 563">
              <path id="Path_481" data-name="Path 481" d="M773.472,925.689H755.664a3.026,3.026,0,0,1-3.023-3.023V908.48a3.026,3.026,0,0,1,3.023-3.023h17.808a3.026,3.026,0,0,1,3.023,3.023v14.187A3.026,3.026,0,0,1,773.472,925.689Zm-17.808-19.56a2.353,2.353,0,0,0-2.351,2.351v14.187a2.353,2.353,0,0,0,2.351,2.35h17.808a2.353,2.353,0,0,0,2.35-2.35V908.48a2.353,2.353,0,0,0-2.35-2.351Z" transform="translate(-726.562 -883.84)" fill="#0c4b9b" opacity="0.8"/>
              <g id="Group_558" data-name="Group 558" transform="translate(0 26.688)">
                <path id="Path_482" data-name="Path 482" d="M701.446,921.22H675.367a.336.336,0,1,1,0-.672h26.079a.336.336,0,1,1,0,.672Z" transform="translate(-675.031 -920.548)" fill="#0c4b9b"/>
                <path id="Path_483" data-name="Path 483" d="M701.446,938.467H675.367a.336.336,0,0,1,0-.672h26.079a.336.336,0,0,1,0,.672Z" transform="translate(-675.031 -931.999)" fill="#0c4b9b"/>
              </g>
              <g id="Group_559" data-name="Group 559" transform="translate(49.261 26.688)">
                <path id="Path_484" data-name="Path 484" d="M849.492,921.22H821.964a.336.336,0,1,1,0-.672h27.528a.336.336,0,1,1,0,.672Z" transform="translate(-821.628 -920.548)" fill="#0c4b9b"/>
                <path id="Path_485" data-name="Path 485" d="M849.492,938.467H821.964a.336.336,0,0,1,0-.672h27.528a.336.336,0,0,1,0,.672Z" transform="translate(-821.628 -931.999)" fill="#0c4b9b"/>
              </g>
              <g id="Group_562" data-name="Group 562" transform="translate(25.212)">
                <g id="Group_560" data-name="Group 560">
                  <path id="Path_486" data-name="Path 486" d="M755.6,863.778a.336.336,0,0,1-.327-.258l-5.206-21.979a.336.336,0,0,1,.654-.155l5.206,21.979a.336.336,0,0,1-.25.4A.345.345,0,0,1,755.6,863.778Z" transform="translate(-750.062 -841.126)" fill="#0c4b9b"/>
                  <path id="Path_487" data-name="Path 487" d="M807.774,863.778a.336.336,0,0,1-.327-.416l5.4-21.979a.336.336,0,0,1,.653.16l-5.4,21.979A.336.336,0,0,1,807.774,863.778Z" transform="translate(-788.158 -841.126)" fill="#0c4b9b"/>
                </g>
                <g id="Group_561" data-name="Group 561" transform="translate(0 41.066)">
                  <path id="Path_488" data-name="Path 488" d="M750.4,985.988a.345.345,0,0,1-.078-.009.336.336,0,0,1-.25-.4l5.206-21.979a.336.336,0,0,1,.654.155l-5.206,21.979A.336.336,0,0,1,750.4,985.988Z" transform="translate(-750.062 -963.336)" fill="#0c4b9b"/>
                  <path id="Path_489" data-name="Path 489" d="M813.172,985.987a.337.337,0,0,1-.326-.256l-5.4-21.979a.336.336,0,1,1,.653-.16l5.4,21.979a.336.336,0,0,1-.246.406A.325.325,0,0,1,813.172,985.987Z" transform="translate(-788.158 -963.336)" fill="#0c4b9b"/>
                </g>
              </g>
            </g>
          </g>
          <path id="Path_490" data-name="Path 490" d="M734.936,647.481a10.5,10.5,0,0,1-10.5,10.5H658.509a10.5,10.5,0,0,1-10.5-10.5h0a10.5,10.5,0,0,1,10.5-10.5h65.923a10.5,10.5,0,0,1,10.5,10.5Z" transform="translate(-607.347 -589.009)" fill="#91b3fa"/>
          <g id="Group_565" data-name="Group 565" transform="translate(40.658 205.894)">
            <rect id="Rectangle_300" data-name="Rectangle 300" width="92.727" height="20.284" rx="10.142" fill="#91b3fa"/>
            <rect id="Rectangle_301" data-name="Rectangle 301" width="92.727" height="20.284" rx="10.142" transform="translate(105.766)" fill="#91b3fa"/>
            <rect id="Rectangle_302" data-name="Rectangle 302" width="92.727" height="20.284" rx="10.142" transform="translate(211.533)" fill="#91b3fa"/>
            <rect id="Rectangle_303" data-name="Rectangle 303" width="92.727" height="20.284" rx="10.142" transform="translate(317.299)" fill="#91b3fa"/>
          </g>
          <g id="Group_568" data-name="Group 568" transform="translate(52.249 250.084)" opacity="0.8">
            <g id="Group_566" data-name="Group 566" transform="translate(0 2.898)">
              <path id="Path_491" data-name="Path 491" d="M833.9,1255.049a7.969,7.969,0,0,1-7.969,7.969H690.467a7.969,7.969,0,0,1-7.969-7.969h0a7.969,7.969,0,0,1,7.969-7.969H825.935a7.969,7.969,0,0,1,7.969,7.969Z" transform="translate(-682.498 -1247.08)" fill="#bdd0fb"/>
            </g>
            <g id="Group_567" data-name="Group 567" transform="translate(312.228)">
              <path id="Path_492" data-name="Path 492" d="M1687.007,1246.426a7.969,7.969,0,0,1-7.969,7.969h-59.4a7.969,7.969,0,0,1-7.969-7.969h0a7.969,7.969,0,0,1,7.969-7.969h59.4a7.969,7.969,0,0,1,7.969,7.969Z" transform="translate(-1611.667 -1238.457)" fill="#bdd0fb"/>
            </g>
          </g>
        </g>
      </g>
      <g id="Group_1" data-name="Group 1" transform="translate(686.061 2321.134)">
        <path id="Path_1" data-name="Path 1" d="M1699.757-476.6a12.268,12.268,0,0,1,1.122-5.7,9.474,9.474,0,0,1,1.775-2.642q2.189-2.18,4.37-4.368l5.818-5.817q5.783-5.781,11.565-11.562a13.894,13.894,0,0,1,4.294-3,9.549,9.549,0,0,1,5.545-.671,12.969,12.969,0,0,1,6.318,3.462c.373.33.362.533.01.883q-9.488,9.455-18.952,18.934-3.634,3.633-7.268,7.265a4.619,4.619,0,0,0,0,6.54q5.238,5.262,10.5,10.5a9.091,9.091,0,0,1,2.853,4.818,8.462,8.462,0,0,1-1.252,5.844,20.68,20.68,0,0,1-3.05,3.929c-.308.323-.5.309-.806-.006-1.264-1.3-2.555-2.569-3.836-3.85l-6.974-6.974c-1.249-1.249-2.495-2.5-3.751-3.746-1.464-1.448-2.9-2.921-4.405-4.333a10.867,10.867,0,0,1-3.056-4.348,14.516,14.516,0,0,1-.676-2.475A24.763,24.763,0,0,1,1699.757-476.6Z" transform="translate(-1699.754 510.501)" fill="#91b3fa"/>
        <path id="Path_2" data-name="Path 2" d="M1871.463-451.775a12.28,12.28,0,0,1-1.122,5.7,9.447,9.447,0,0,1-1.776,2.642q-2.188,2.18-4.369,4.369l-5.819,5.817q-5.782,5.781-11.565,11.562a13.886,13.886,0,0,1-4.294,2.995,9.55,9.55,0,0,1-5.544.671,12.972,12.972,0,0,1-6.319-3.462c-.373-.33-.362-.533-.01-.883q9.487-9.455,18.952-18.933,3.634-3.633,7.268-7.266a4.619,4.619,0,0,0,0-6.54q-5.238-5.262-10.5-10.5a9.089,9.089,0,0,1-2.852-4.818,8.458,8.458,0,0,1,1.251-5.844,20.635,20.635,0,0,1,3.05-3.929c.308-.323.5-.309.806.006,1.264,1.3,2.555,2.569,3.836,3.85l6.974,6.974c1.249,1.249,2.494,2.5,3.75,3.746,1.465,1.448,2.9,2.921,4.405,4.333a10.864,10.864,0,0,1,3.056,4.348,14.474,14.474,0,0,1,.676,2.475A24.7,24.7,0,0,1,1871.463-451.775Z" transform="translate(-1805.816 486.083)" fill="#91b3fa"/>
        <path id="Path_3" data-name="Path 3" d="M1845.422-375.625a4.568,4.568,0,0,1-1.354,3.312c-2.394,2.448-4.83,4.856-7.241,7.288-.216.217-.333.17-.522-.021-2.385-2.4-4.8-4.775-7.159-7.2a4.29,4.29,0,0,1-.378-6.008,28.964,28.964,0,0,1,2.818-2.968c1.532-1.573,3.11-3.1,4.65-4.669.285-.29.434-.248.7.018q3.153,3.186,6.332,6.347a8.016,8.016,0,0,1,1.739,2.307A3.874,3.874,0,0,1,1845.422-375.625Z" transform="translate(-1803.656 409.487)" fill="#91b3fa"/>
      </g>
    </g>
  </g>
</svg>
