<svg xmlns="http://www.w3.org/2000/svg" width="64.809" height="64.821" viewBox="0 0 64.809 64.821">
  <path id="Path_499" data-name="Path 499" d="M3193.1,6206.453v1.622c-.21,1.626-.347,3.266-.643,4.876a31.613,31.613,0,0,1-10.89,18.818c-1.228,1.049-2.592,1.942-3.919,2.869-.8.556-1.5.471-1.927-.142-.453-.649-.256-1.366.589-1.893a29.627,29.627,0,0,0,10.091-10.229,28.563,28.563,0,0,0,3.639-20.59c-2.434-12.1-9.721-20.082-21.547-23.516-15.793-4.587-32.276,4.988-36.734,21.039a29.962,29.962,0,0,0,22.418,37,29.551,29.551,0,0,0,16.283-.942c1.255-.436,1.907-.276,2.2.53s-.116,1.347-1.373,1.784a31.916,31.916,0,0,1-9.352,1.762,4.737,4.737,0,0,0-.634.106H3160c-1.5-.164-3.005-.284-4.5-.5-12.6-1.83-23.457-12-26.346-24.4a32.366,32.366,0,0,1,56.86-27.629,31.969,31.969,0,0,1,6.949,18.4C3192.984,6205.77,3193.053,6206.111,3193.1,6206.453Zm-20.384,4.014c1.078-5.074,1.825-8.6,2.918-13.812a5.292,5.292,0,0,0,.028-1.979,2.49,2.49,0,0,0-3.245-1.985c-.875.267-1.724.6-2.545.915l-.5.194q-3.544,1.362-7.087,2.728l-3.9,1.5a1.138,1.138,0,1,0,.818,2.125l3.9-1.5q3.543-1.364,7.086-2.728l.507-.2c.819-.317,1.592-.617,2.385-.859a.309.309,0,0,1,.229,0,.3.3,0,0,1,.111.208,3.011,3.011,0,0,1-.016,1.109c-1.093,5.206-1.84,8.733-2.917,13.807a1.14,1.14,0,0,0,.877,1.351,1.17,1.17,0,0,0,.238.024A1.139,1.139,0,0,0,3172.714,6210.467ZM3152.6,6212.8c-.1,1.354-.2,2.731-.286,4.062l-.1,1.522c-.035.51-.074,1.021-.113,1.541l-.052.707a1.139,1.139,0,0,0,1.019,1.217,2.769,2.769,0,0,0,2.3-.856l3.322-3.193,4.353,3.2q.358.264.713.53c.557.416,1.133.847,1.723,1.253a7.489,7.489,0,0,0,1.012.561c.124.061.248.121.37.185a1.135,1.135,0,0,0,.529.13h.672a1.144,1.144,0,0,0,.38-.064,3.324,3.324,0,0,0,2.063-2.714l1.489-7a1.138,1.138,0,0,0-2.227-.473l-1.489,7c-.139.652-.285.872-.453.976h-.163c-.058-.029-.116-.057-.174-.085a5.658,5.658,0,0,1-.717-.39c-.554-.381-1.112-.8-1.651-1.2q-.363-.271-.726-.54l-5.117-3.767a1.14,1.14,0,0,0-1.442.075l-.1.088c-.081.073-.159.144-.234.216l-3.026,2.909c0-.05.007-.1.01-.149l.1-1.524c.084-1.239.172-2.518.265-3.777q4.227-3.826,8.46-7.645l2.866-2.588c.981-.886,2-1.8,2.988-2.717a1.66,1.66,0,0,0,.46-.824c.005-.019.01-.037.01-.042a1.138,1.138,0,0,0-.78-1.518l-.048-.018a1.578,1.578,0,0,0-1.053-.064,5.316,5.316,0,0,0-1.2.548q-3.829,2.4-7.656,4.811-4.876,3.067-9.755,6.13c-1.725-.529-3.472-1.076-5.165-1.606l-2.021-.632a3.009,3.009,0,0,1-.3-.107,5.054,5.054,0,0,1,.849-.392l12.887-4.962a1.139,1.139,0,1,0-.818-2.125l-12.887,4.962a4.382,4.382,0,0,0-2.388,1.738,1.139,1.139,0,0,0-.164.589v.522a1.139,1.139,0,0,0,.211.66,3.575,3.575,0,0,0,1.932,1.288l2.018.632c1.771.555,3.6,1.128,5.41,1.681a1.9,1.9,0,0,0,1.508-.233q4.949-3.1,9.895-6.216l1.106-.7q-4.02,3.63-8.036,7.263A1.756,1.756,0,0,0,3152.6,6212.8Z" transform="translate(-3128.288 -6174.731)" fill="#fff"/>
</svg>
