<svg xmlns="http://www.w3.org/2000/svg" width="64.809" height="64.821" viewBox="0 0 64.809 64.821">
  <path id="Path_497" data-name="Path 497" d="M2702.42,6236.181c-1.5-.164-3-.284-4.5-.5-12.6-1.829-23.458-12-26.346-24.4a32.365,32.365,0,0,1,56.86-27.629,31.973,31.973,0,0,1,6.949,18.4c.019.344.087.686.132,1.027v1.623c-.21,1.626-.347,3.265-.643,4.875a31.612,31.612,0,0,1-10.89,18.818c-1.228,1.049-2.592,1.942-3.919,2.869-.8.556-1.5.472-1.927-.141-.453-.65-.256-1.367.589-1.894A29.618,29.618,0,0,0,2728.82,6219a28.561,28.561,0,0,0,3.639-20.59c-2.434-12.1-9.721-20.082-21.547-23.516-15.793-4.587-32.276,4.988-36.734,21.039a29.962,29.962,0,0,0,22.418,37,29.56,29.56,0,0,0,16.283-.941c1.255-.436,1.907-.277,2.2.53s-.116,1.346-1.373,1.783a31.914,31.914,0,0,1-9.352,1.762,4.751,4.751,0,0,0-.634.106Zm13.168-38.239c-.219,1.271-.168,2.587-.35,3.866a16.913,16.913,0,0,1-5.736,11.014,18.26,18.26,0,0,1-11.8,4.217c-.952.022-1.448.42-1.435,1.154.013.716.535,1.147,1.479,1.1a30.411,30.411,0,0,0,3.7-.333,18.913,18.913,0,0,0,12.233-7.256c2.851-3.754,3.917-8.115,4.114-12.736a1.413,1.413,0,0,1,.62-1.205c1.233-.922,2.439-1.879,3.648-2.833a1.12,1.12,0,0,0,.39-1.375,1.087,1.087,0,0,0-1.242-.691c-.447.051-.893.122-1.418.194.153-.326.261-.57.381-.808a1.393,1.393,0,0,0-.131-1.789c-.557-.546-1.161-.384-1.793-.094a22,22,0,0,1-2.47,1,1.289,1.289,0,0,1-1-.181,8.19,8.19,0,0,0-12.991,7.854,1.14,1.14,0,0,0,1.231,1.034,1.083,1.083,0,0,0,1.022-1.227c-.014-.324-.033-.647-.042-.972a5.519,5.519,0,0,1,3.149-5.337,5.379,5.379,0,0,1,6.161.471c.9.688,1.734,1.176,2.863.662.038-.018.114.047.185.079-1.03,1.069-.955,1.645.129,2.319A7.517,7.517,0,0,0,2715.588,6197.941Zm-23.287,10.5c.771-.1,1.666-.048,1.828-1.086.17-1.086-.72-1.235-1.46-1.485-.077-.025-.154-.051-.228-.083a5.748,5.748,0,0,1-3.258-3.716,4.317,4.317,0,0,0,1.366.145,1.876,1.876,0,0,0,1.123-.711c.155-.267-.068-.78-.186-1.165-.048-.157-.253-.273-.4-.392a5.725,5.725,0,0,1-2.074-3.734,17.8,17.8,0,0,1-.019-2.405c.347.3.47.4.584.5a21.414,21.414,0,0,0,8.944,5.035c.88.255,1.529.015,1.743-.651s-.18-1.229-1.059-1.535c-.941-.328-1.894-.633-2.81-1.022a18.248,18.248,0,0,1-6.369-4.636c-.937-1.031-1.893-.938-2.5.312a9.259,9.259,0,0,0-.819,2.676,8.249,8.249,0,0,0,.848,4.656,1.784,1.784,0,0,0-.894,2.021,8,8,0,0,0,1.839,4.416c.434.53,1.025.939.635,1.784-.1.211.07.576.179.846a7.988,7.988,0,0,0,4.316,4.372c-.224.112-.361.192-.506.252a13.65,13.65,0,0,1-6.344.963,1.192,1.192,0,0,0-1.33.837,1.2,1.2,0,0,0,.583,1.464,19.479,19.479,0,0,0,7.268,2.821,1.133,1.133,0,0,0,.531-2.2,7.035,7.035,0,0,0-.707-.17c-.659-.174-1.317-.354-2.19-.59,1.215-.4,2.234-.653,3.178-1.073a21.619,21.619,0,0,0,2.877-1.6,1.1,1.1,0,0,0,.5-1.475,2.1,2.1,0,0,0-1.191-.768,6.99,6.99,0,0,1-4.2-2.509A.991.991,0,0,1,2692.3,6208.438Z" transform="translate(-2670.709 -6171.36)" fill="#fff"/>
</svg>
