<svg xmlns="http://www.w3.org/2000/svg" width="64.808" height="64.837" viewBox="0 0 64.808 64.837">
  <path id="Path_498" data-name="Path 498" d="M2216.517,6235.964c-1.472-.163-2.951-.282-4.416-.5a32.36,32.36,0,1,1,35.683-42.42,31.392,31.392,0,0,1,1.7,8.79c.015.344.087.685.133,1.027v1.785c-.16,1.281-.278,2.569-.488,3.842a32.2,32.2,0,0,1-11.006,19.644,48.38,48.38,0,0,1-3.976,2.926c-.787.552-1.5.453-1.919-.172-.437-.651-.229-1.358.62-1.888a29.767,29.767,0,0,0,10.73-11.354,28.431,28.431,0,0,0,3.294-17.386c-1.645-12.577-8.559-21.244-20.534-25.175a29.9,29.9,0,1,0,.412,56.786c.2-.067.4-.155.608-.222.906-.3,1.559-.058,1.816.657s-.08,1.376-.99,1.647a50.317,50.317,0,0,1-4.915,1.318c-1.8.341-3.633.467-5.452.688Zm-3.2-34.074c.456.6.945,1.24,1.431,1.883a1.17,1.17,0,0,1-.088,1.782c-.537.41-1.153.3-1.686-.357s-1.058-1.368-1.543-2.082c-.708-1.043-.781-1.833.093-2.719a2.691,2.691,0,0,0,.346-3.644c-.212-.375-.362-.786-.579-1.158-.56-.959-1.2-1.083-2.05-.356a4.108,4.108,0,0,0-1.343,4.033,12,12,0,0,0,2.452,4.966,18.89,18.89,0,0,0,11.189,7.639,4.263,4.263,0,0,0,4.772-2.041,1.052,1.052,0,0,0-.447-1.57c-.754-.419-1.493-.87-2.264-1.257a1.138,1.138,0,0,0-1.64.5c-1.549,2.369-2,2.473-4.523,1.192a13.551,13.551,0,0,1-1.33-.771,1.134,1.134,0,1,1,1.144-1.958c.714.375,1.418.77,2.19,1.191.269-.4.5-.759.744-1.105a2.967,2.967,0,0,1,3.811-1.278,17.287,17.287,0,0,1,3.656,2.036,3.009,3.009,0,0,1,.737,3.952,6.582,6.582,0,0,1-7.1,3.388,21.361,21.361,0,0,1-15.18-12.835,6.631,6.631,0,0,1,1.013-7.166c1.948-2.436,4.874-2.143,6.309.606.4.763.716,1.57,1.041,2.368a3.716,3.716,0,0,1-.719,4.071c-.123.144-.237.295-.349.447A1.347,1.347,0,0,0,2213.312,6201.89Zm-9.549,11.946a1.144,1.144,0,1,0-2.182-.619c-.572,2.051-1.135,4.106-1.663,6.17-.3,1.164.421,1.842,1.586,1.537,1.617-.423,3.238-.835,4.84-1.31a2.3,2.3,0,0,1,1.9.231,17.928,17.928,0,0,0,12.841,1.923,18.585,18.585,0,0,0,13.813-24.149,17.83,17.83,0,0,0-2.856-5.417,1.112,1.112,0,0,0-1.632-.293,1.091,1.091,0,0,0-.238,1.582c.146.227.312.44.465.664a15.888,15.888,0,0,1,2.387,13.661,16.313,16.313,0,0,1-24.386,9.628,2.266,2.266,0,0,0-1.982-.276c-1.29.387-2.6.709-4.062,1.1C2203.015,6216.691,2203.4,6215.267,2203.763,6213.836Zm-3.978-3.708a1.154,1.154,0,0,0,1.466.807,1.189,1.189,0,0,0,.7-1.525c-.06-.234-.153-.461-.231-.69a16.309,16.309,0,0,1,9.561-20.457,15.932,15.932,0,0,1,14.934,1.59c1.044.667,1.682.678,2.113,0s.163-1.26-.881-1.927a18.526,18.526,0,0,0-12.5-2.911c-9.257,1.1-16.356,9.1-16.367,17.9A19.054,19.054,0,0,0,2199.786,6210.129Z" transform="translate(-2184.807 -6171.127)" fill="#fff"/>
</svg>
